<svg id="Icons" height="512" viewBox="0 0 74 74" width="512" xmlns="http://www.w3.org/2000/svg"><path d="m69 72h-64a3 3 0 0 1 -3-3v-11.12a1 1 0 0 1 2 0v11.12a1 1 0 0 0 1 1h64a1 1 0 0 0 1-1v-64a1 1 0 0 0 -1-1h-64a1 1 0 0 0 -1 1v26a1 1 0 0 1 -2 0v-26a3 3 0 0 1 3-3h64a3 3 0 0 1 3 3v64a3 3 0 0 1 -3 3z"/><path d="m3 51.87a1 1 0 0 1 -1-1v-2.93a1 1 0 0 1 2 0v2.93a1 1 0 0 1 -1 1z"/><path d="m3 41.94a1 1 0 0 1 -1-1v-2.94a1 1 0 0 1 2 0v2.94a1 1 0 0 1 -1 1z"/><path d="m71 19h-68a1 1 0 0 1 0-2h68a1 1 0 0 1 0 2z"/><path d="m62.243 14.252a3.752 3.752 0 1 1 3.757-3.752 3.756 3.756 0 0 1 -3.757 3.752zm0-5.5a1.752 1.752 0 1 0 1.757 1.748 1.754 1.754 0 0 0 -1.757-1.752z"/><path d="m52.042 14.252a3.752 3.752 0 1 1 3.751-3.752 3.756 3.756 0 0 1 -3.751 3.752zm0-5.5a1.752 1.752 0 1 0 1.751 1.748 1.754 1.754 0 0 0 -1.751-1.752z"/><path d="m41.84 14.252a3.752 3.752 0 1 1 3.752-3.752 3.756 3.756 0 0 1 -3.752 3.752zm0-5.5a1.752 1.752 0 1 0 1.752 1.748 1.755 1.755 0 0 0 -1.752-1.752z"/><path d="m32.9 11.5h-23.895a1 1 0 0 1 0-2h23.895a1 1 0 0 1 0 2z"/><path d="m46.214 51.091a1 1 0 0 1 -.649-1.762l6.851-5.829-6.851-5.829a1 1 0 0 1 1.3-1.524l7.746 6.591a1 1 0 0 1 0 1.524l-7.746 6.591a1 1 0 0 1 -.651.238z"/><path d="m27.786 51.091a1 1 0 0 1 -.647-.238l-7.746-6.591a1 1 0 0 1 0-1.524l7.746-6.591a1 1 0 0 1 1.3 1.524l-6.855 5.829 6.851 5.829a1 1 0 0 1 -.649 1.762z"/><path d="m31.621 59a1.011 1.011 0 0 1 -.348-.062 1 1 0 0 1 -.589-1.286l10.757-29a1 1 0 1 1 1.875.7l-10.757 29a1 1 0 0 1 -.938.648z"/></svg>