<svg id="Free_Land" data-name="Free Land" xmlns="http://www.w3.org/2000/svg" viewBox="0 0 4096 4096"><defs><style>.cls-1{fill:#83b24b;stroke:#587f1f;stroke-linecap:round;stroke-miterlimit:16.38;stroke-width:4px;}</style></defs><path class="cls-1" d="M2986.75,1898.78l-6.57,7.88,3.32,7.38,2.53,13.62,9.14,3.64,5.9,9.12,4.53-4.22,4.93-1,7.1-4-1.62-7.49.5-9.55,0-5.39-6.17-4.87-4.24-6.79Z"/><path class="cls-1" d="M2953.59,2079.07l20.24,1.85,9.78-14.42,15-5.33-5.91-7.2-9.75-5.67L2985,2032l-24.94-7-14.7,1.76-1.35,6.42.72,8-9.89,5.31,2.66,5,3.4,10.17,14.42,6.35-1.77,11.15"/><path class="cls-1" d="M2890.54,2597.67l20.82-7.15,19-7.2,11.74-9.06-5.13-10-17-6.49-17.2,5.57-19.08,5.72-4.21,15.85,11.11,12.79"/><path class="cls-1" d="M2693.69,2751.1l13.11.21,7.84-9.3,14.27-5.52,16.43-9.06,6.8-1.79,9.84-3.49-3-11.25-14.5-7.12-3.5-11.87-4.26-9.11-14.84,8.76-16.84-5.41-13.23,7.51-17.56-1.72-2.35,14-8.09,5.63-1.76,9.51,8.7,9.74-2.27,8.75,14.92,4.55,7.12,4.82,3.18,2.19"/><path class="cls-1" d="M2497.38,2773l23.38,1.3,14.25-7.74-.92-8.87-2.74-9.8-10.71-10.78-12.8,1.22-8.53-3.21-13.77-1.64,2.08,14.54-7.08,9.31,16.84,15.67"/><path class="cls-1" d="M1187.94,2611.74l9.19-6.71,7.76-4.61-5.94-8.49.34-14.77-15.49-3.61-4.37-2.71-6.67-4.07.27-5.93,8.31,4.87,10.48-1.07-1.41-12.73-7.33-7.61-8.23-6.49,3.15-11.62,3.53-6.47,1.57-10.55-2.22-12.52-5.6-12.88-8.28,2.06-8.42,2.34-4.5-9-6.06-9.35-5.52,7.93-9-3.18-11.64,2.69,3.13-13.23-3.68-1.79-3.84-.29-5.9-6-9-5.54-3.19,4.09-6.19,1-.42,4.93,2.73,8.56-7.9,4.38-5.17,6.39-2.1,10.74-4.12,8.28,1.66,7.9,3.89,6.81.78,6.21,2.1,6.37-7.43,4.08,5.31,8.67,8.36,5.4,8-8.8,10.52,7.38,6.61,6.76,3.59,7.85,9,3.25,6.14-.78,2.18,12,7.11,8.9,8.75,1.91,9.18-4.23-2.69,12.79,6.79,9,8.25.73,7.81-1.13,5.78,11.9"/><path class="cls-1" d="M1300.8,1241.9l3,11.61,7.58-3.89,2.82-4.56.74-4.79-4.44-7.25.91-8.08-4.81-3.47,1.22-7.38-5.4-6.4-7.6-4.27-8.1,2.32.32,6.14,6.64,3.06,1.94,12.71-8.39,3.84-3.39,4.49,6.59,4.07,4.41-4.09,5.94,5.94"/><path class="cls-1" d="M1061.43,1921.58l1.81-15.83-4.52-14-12.67-9-6.53-22.11,15.18-6.66,7.62,11.31,12.6-.84-2.5-8.68.06-8.93-5.65-4.37-7.74-2.8-6.29-5.83-5-8.64,1.93-6.44-.34-3.63,3.29-4,2-10L1046,1792l-1.57-9.17,6.21-1.78,9.12,1.87-.72-10.63,6.38-8.28-5.09-7.26-7.68-7.21,4-11.74,11,2.22,1.67-8,8-3.71-1.65-10.54-10.25-9.06-2,4.74-8-4-3.17,4.6-6.5,1.94-8.79-21.8,2.51-26.68,9.89-12.21v-11.72l10-.08,4.65,5.34,5.87-4.17,4.41,2.19,3.55-.4L1081,1643l-2.84-5.33,5.28-5-1.68-9.38-6.88-7.06-5.75-8.75-.78-15.44-2-9.39-.33-9.29,4.55-11.66,13,10,9.36-5.56-2.89-9.21-4.81-4.39.87-9.85,6.7-1.26,3-5.44-2.65-8,6.11-9.19,5.71,2,5.69-1.09,6.41,2.12,7.06-7.83,7.21,4,7.69-4.2,2.54-12.36,5.59-5.33-1.52-6.87-5.6-5.49-8.59,1.8-.3-7.5,1.49-9.49,8.62-11.31-6.76-9.82-8.42,1-8.46-3-6.34-3.34-8.33,1.38-6.78,5.44,7.66,7.24-10.43,4.72-4.56-2.18-6.66,12.33-8.31,16.84-5.13,6-7.9,1.5-8-3,2.91-6.31-1.24-8.06.33-12.36-5-9.66,1-10.48,9.19-1.6,4.19-12.41,6.07-4.51,5.22-6.8,7.51-5.55,10-3.35,10.94-2,7.42,1.25,5,6.36,6.35,8.09,11.89-9.66,13,2.74,9.51.34,7.08-3.8,9,1.78,8.57,4.68,1.07,12.15,10.13,5.21,11-5.75.5-9.81,4.34-7.7-.79-8.17-3.11-7.27,6.63-8,9.3-8.86-1.42-9.85,1.39-10.52,6-9-8.7-2-5-4.15.78-8,5.32-6.54,2.94-13.52-1.73-12.46,9.84-5.94-2.37-12,8.17-4,3.71-3.87,8.7,4.87,11.82,5,12.67-3.18-2.48-8-2.54-10.31,10.08-2,16.53-.45-5.19,12.2-1.25,10.51-5.1,2.43-3.15,7.27,8.91,5.22,8.47-5.37,2.52-8.61,3.84-6.41.79-6.61,3.32-6.81,10.62,2.46-1.72,6.73,3.19,4.58,3.46,5.88,7.69,4.68.71,5.82,3.86,6.86,3.55,4.62-7,9.73,10.38,15,6.49-14.74,7.45-6.87.39-8.52,1.36-6.69,3.2-5.22,6.44-1.54,4.5,5.71,1.84,9.14,5.77,4.26,1,5.88,6.37,1.27,5.69-.61,9.33,5.73,12.42,1.53,8.67,8.37,1.44,11.8,6.16,5.39,1.38,8.58,6.58,4.44,3.14,6.39,1.71,8.16,2.19,7.16,2.17,10.45,4.36,4.39,4.68,5.15,4.59-10,4.89-8.43,6.6-15.86,3.44-5.65,4.39.14,1.91-7.5,7-1.59,6.76.56-.27-7.18-2.37-8.36-3.82-8.22-6.89-5.84,4.84-10.38,10.09,1.62.92,13.37,9.67-5.83,2.52-7.84-.94-6.36-.91-5.79-5-4.79-4.5-.62.51-6.94,3.33-8.83,5.6-8.65,9.87-8.47,1.61-14,1.35-9.57,5.93-7L1521,1240l-9.91,4.94-.44,12.33-6.76,8.31-10.48,2.26-9.09-1-8.32,4.55-5.43,2.78-5,3.31-5.34-7.23-2.62-8-10.17.66-6.71,9.52-9.87-4-2.36-9.8,5.18-6.57,6-1.46-.31-3.42,1-3.18,4.56-2.8,4.21,1.94,6.53,2.41,7.31-10.73-8.37-3.71.48-9.2,7.73-3.79,1,8.07,4.9,4.34,7.29,2.36,4.92-1.15,5.39-1.33,4-4.34,5.93,3.51,4.79,4.37,7.36,3.15,6.69-4.75,3-4.51,7.33-1.35-5.84-7.63-2.69-5.44-2-6.64-9,.62-6-7.39,7.46-6.15,8.89,3.09,2.23-9.38,9.05-3.6,4.83,5.86,6.71-.39-2.18,5.8-4.29,4.17,8.51-1.48,6-5.14,9.06,2,1.88-11,5.89-3.63,6.49-3,5.28,1.63,10.27,1.08,4.81-6.9,7.52-2.48,3.73-6.36,4.48-3.72-.69-5.75,8.89,3.78-2.62,7.58,7.65,5.86-.88,7.4.91,7.63,10,.08,10.23-3.37,8.86,2.86,5,5.25.67,10.66,3.16,8,6.53,6.25,10.39-8.83,15.31-4.23-.83-17.2-8.17-1.78-8.32-3.41-1.87-9.63-6.8-8-1.75-10.78,4.43-8.85,4.19-8.89-9.64-3.62-4.8-3.68.83-7.87-10.36-4.13,2.15-9.06,5.16-6.5,9.16-.15,6-.76,7.9,2.69,5.22,7.39,10.13,3.31-4.53-11.33-7.94-7-2.93-8.89,1.24-8.37,13.21.38,6.22,8.19,10.57-2.06,12.35-2.11-4.11,10.36,7.65,6.83,9-5,3.27-11.42-.12-11.6-.33-6.48,4.75-6.12-.38-13.18-4-8.2-7.25-3.32-9.23.81-.47-11,5.76-5.78-2-5.71,2.94-7.82.64-6.75,2-9.14-.18-9.11,10.63,2.1,13,2.57,4.61,6.08,7,5.54,3.51.9,7.49-2.9,8.83,6.76-7.23,8.74.67,9.42-.37,9.57-1,8.33-10.43-.23-7.88,2.51-3.36,5.54,6.91,6.23-.75,5.32,9.19,5.14,4.18,4.19,9.32-1.64,12.3,1.14-3,9.79,6.91,4.23,5.62-2.33,4.38-6.81-7-12.88,9.9-.6,7.71-4.77,11.07-3.9-2.09,8,8.29,6.35,5.42,8.54,6.89,1,8.16-4.35,6.25-9.57-4.81-13.75-11.66,1.49,0-9.26,3.1-10.56,9.52-3,7.51.53,7,1.74,7.47-5.18,8-.55,5.45-6.09,11-2.58,9.09,6.16,4.05,4.87.42,2.16,6.23,2.26,3.48,12.64,11.5,4.19,7.82-13.54-1-12.41,6.08-11.26,9.76-8.28,5.67,9.88,15.85-7.47,8.89,1.38,5.5,7.31,3.24,9.67-2.51,7.72-2.36,6.75-4.48,6.85-1.7,11.18,7.67-3.76,2.7-11.44,7.35-9.28,5.68-9.34,9-1.28,14,2.54,11.53,8.39-3.65,6.62.6,6.64,7.92,6.45,7.16-5.95,8.35-9.65,12.58,1.47,7.65,8.08-8.1,5.55,1.24,5.71-8.4,7.19,6.58,10.77,2.3-9.14,9.06-1.18,10.6-3.51,8.39,6,6.07,3.58,5.58-2.13-1-7.29,8,.08,3,2.39,6.35-1.43.57,8.74,2.38,6.9,4.27,7.49-.11,13.51-5,5,5,6.28-2,9.65,2.11,6.5,5.81,5.57-5.26,5.76-11.11,5.17.31,5.86-1.19,9.74.76,6.56,1.58,7.93-.17,5-2.15,7.85,5.44,10L2135,1194l-2.88,11.78-5.13,7.63-4.57,6.37,4.6,1.65,4.47.72,1.81-3.94,2-3.58,7.14,1.26,5.34,8.11,13.75-4.2,8.83,9.32,7.14,3.21,8.22,6.43,8.26.42,4.82.25,4.66,1,8,.18,9.06-8.94-17.27.59-12,.75-2.33-2.83-4.44-2.53-7.65-9.76-10.49-4.36-5.86-3.51-.08-7-4.74-4.74-4.66-5.88.69-7.47,6.39-9.9-4.36-5-3.56-6.9,1.12-3.63,5.24-2.6,1.93-9.83,1.23-8.62,9,4.35,3.45-9.38,8.62-11.82,6.85,6,2.16-12.68-12.37-4.72-2.3-9.6-.74-7.27,5-7.2,5.13,6.12,6.86-6.08-4.68-7.5,1.21-9.36,7.63-1,7.68,7.7,8.72-1.78,10.52-2.5,5.43-2.47,9.09-3.72,4.23-5.62,4.32-2.76,4.95-2,4.21-3.32,8-1.14,5.85-6.37,6.69,4.66,1.06,4.54-3.17,6.13,12.19,3.33,9-7.68,7.81,1.33,7.86-.72,9.75,2.18,8.5.87,5.66,3.69,2.26,6.22,10.74,5.23,7.41,7.34,5.15,6.24,4.61,6.48,7.69.63,8.23,1.4,2.64-6.11-6.92-1.28,2.8-6.39-1.06-3.65.25-5.44,2.82-6.11,5.48-7.47-12.9-7.12,4.32-9.33-5.86-4.43.34-5.57,6.87-2.21,6.71-4.17-.21-6.92L2390,1017l3.05-6,9-1.64,9.55-6,11,7.24,3.69-10,7.2.49,7.3-.18,5-.43,4,.16,5.54,1.56,4.3-1.28,6.27.39,7-2.34,4.25-10.69,7.53-9,11.89,3.82,3.2-8.76L2501,963.3l7.72-7,10,1.18,3.8-12.22,16.68,1.56,6.6,7.92,12.64-4.85,3.86,6.28,6.28,2.59.66,8.24,4.19,7.46-4.62,9.3,7.43,7-.13,5.42-5,4.05-6,9.14,5.42,5,2.24,9.83-7.16,4.71-7.25,3.63-2.69,4.89-2.73,6.92,5,10.11-4,9.91-7.47,8.13-5,9.45-5.6,11.29-8.1,9.86-10.39-.53-8.52,2.26-8.23-3.76-7.57,4.43-10.39-6.19-3.88,9.5,2.42,5.84.67,6.1-3.81,3.19,2,5.2,4.09-3,6.69,1.3,2.71,5.79-2,5.22.56,8.08,6.18,6.49,5.13,5.81,6.4,6,3.27,6.72,8.9,1.25-4.58,9-2.61,6.87,11.57-5,4.93-10.71,4.53-3.72,4.42-1.67,7.43,10.23,6.86-2,9.18-5.09,7.89,2.83,9.51,4.44-3.48,8.58,5-.07,5.85-1,10.3-.08.91,10,2.37,6.89,9,4.54,7,6.62,7.12-.62,4.87-2.89,3.82.4,7.38,7.25,11.72,1.86,6.25,13.16,4.1,6.85.49,5.91,6.62,4.49,2.26,9.27,8.81-.88,2.19,4.68-4,4.35.56,5.4-3.57,4.81,5.78,6.83-7.42,6.48-3.38,6.58-5.47,7.24-6.93,5.64,4.51,9.3-4.08,6.95.31,10.35-9.68-.13-11.64-.75-7.22,6.73-9.91,1.23-7.52-8.14-9.85-7.4-4.89,1.5,3.18,11.51,10.1,5.75,4.54,9-2.88,8.19,5,3.66-2.27,6.48-8.37,0-8.56.65-7-2.28-3.51,7.57-9.71,6.55-11.38,1.51-4.71,5.85-7.65,2-11.2-.62-8.45-1.8-7.31-2.27-2.89-3.56-4.31-2.68-9-2-3-6.54-6.85,5.75,4.71,9,12.51,3,7.92,4.19,6,4,2.42,7,7.21,5.6,11.53-1.22,4.06-6.64,8.18-2.53,6.72.93-3.85,3.74-6.14,3.34-3.44,8.37-2.59,5.87.1,6.29-.45,4-8.57,3.26-7.11,7.17-9.29,3.1-7.6,1-4.82,4.49-5.13-1.84-8.5.1-8.55,8L2486,1468l-8,5.36-1.25,5,5.92,1.35,9.37-1.31,4.79-5.74,6.2-5.05,10.35-2.82,14.21-4.22,10-.72,3.21-3.82,4.5,7-1.82,3.77-6.18,5.29-12.21,3.18,3.1,8.84-.74,8.52,8.4-3.58,2.51-8.59,6.76-5.72,5.82-5.56,3.11-9.19,4.62-5.74,5.73-7.79,9.63-1.36-7-8,1.47-10.22,9-4,4.76-9.92,8.85-2.47,7.83-3.4,8.42-3.59,8.64-4.6,5.4,4.41,5.13,4.71,9.72-.68,5.48-2.88,1.53-5.59,1.13-5.21,6.88,1.35,6.1,5.84,4.88,6.36,3.34,4.25,11.35,3.19,4.83,1.47,8.15,11.13,8.07,8.81-4.1,8,11.17-1.38,5.93,4,3,3.64-.67,5.52,5.67,6.93,5.74,9.11,10.54,7.17-4.28,4.48-4.28,8.88,7.09,2.64,5.44,6.13.06,5.76-6.14,7.65,2.76,10.86-5.8,8.55-4,8.27-11.77,4.35-5.43,7.74-6,2.17-10,4.59,11.62,3,1.64,12.67.88,8.57-.08,6.15-7.15-3.58-5.62,10.26,3,7.31-5.2,8.15-4.66,9-.94,8.91,8.36-5.93,8.28-7.86-2.4-8.51,4.3-8.2,3.48-2.19.79-3.61,7.41-2.21,4.52-5.26.47-4.19,5.56-6.07,3.75-4.73,7-8.34,4.12-8.64-7.21-8.35,2.29-5.17,10.59-2.41,8.22-6.63,10.73,11.55,8.16-1.89,6.09-3.09,5.76,3.34-1.88-8.53-6.71-2.25-9.33,2.67-8.41-9.75-2.68-8.79,5.25-2.59,3.08-4.5-.67-7.29-3.56-7.15,0-6.48,5.33-.75,6.71,2.78,6.84-14.28,9.81,3.7,5.59-9.17,13.64-5.54,9.65-11.17,8.54,2.24,8.75-.68,8.19,1.83,8.53,4.82-3.55,7.42,6.4.14,6.15-.13,1.88,7.21-1,8.58,9.16.28,1.22,8.73,7.27,10.84-.94,6.06-7.59,4.42-.67,5.92-1.12,3.31,1.49,7.39-5.9,9.94-10.14-1.29-7,9.86-8.88,6.3-4.5.77-.14,10.57,6.66,12.49-.14,15.54,7.3,7.11,8,.6,3,9.29-5.31,10.65,1.73,9.83-2.42,5.13-3.06,6.15,8.5,3.31,4.61,5.81,2.78,12-6.76,6.23-9.91,4-2.45,9-1.84,12.56-5.14,6-5.12,6,.24,7.58,2.17,7.29,8,6.76-.13,8.44,7.24,5.13.64,9.28-5.15,2.17-9.23-3.11-9.16-6.25,2.48,11,2.84,8-5-.81-6-2-8.16,1.07-4.86,4,7.73,3,7.56-1.64,6.45,1.42,5.72,4.3,9.81,8.1-13.62,3.68-8.28-.88-7.83-5-7,3.29,5.32,6.26,9.59,3.89,7.69,3.24,3.45,8.47,1.14,6-6.59,1.77-8.25-1.66-5.43-.68-9.24-5.7-11.76,1.59-9.32-2.93-5.39-4.26-2.72-8.07-3.6-6.51-4.31,2.22.93,9.44,6.28,3.22,2.4,6.55,2.19,5.42,5.8-.71,11.66,4.44,9.84-.59,8,5.25,4.36-1,5-2.58,4.31,6.13,6.31,0,7.86-3.35.38-7.27,6.48,4.86.46,6.31-9.76.3-2.22,6.66-7.2,2.62L2830,1839l-8.46-5.75-10.89,5.15-6.89-1.75-6,.12-1.54,4.73-1.56,7-7.82-.15-4.64,9.78,11.6-3.18,6.72-5,5.95-1.76,6,2.53,11.52-1.13,14.68.23,9.44-2.19,7.07-1.14,8.11-4.59,3,7.5-7.66,7.49-13.16-2-.33,11.28,12,1.23,11,.78,7-3.23,8.16-3.31,2.23,11.44-28.68,6.16,12.23,8,2.63,9.92,11.93,2-1.54,3.62-1,4.69,1.51,9.49-1,15.37.55,9.12,1.21,11-8.4,8.89,6.17,19.07-17.79-1.17-8.26,8-17.94-3-14.9,7.21-15.62,6.09-4.5,10.47-21.82-2.73-9.14,5.23-14.82-2.33-20.83-1.6,5.2-13.85-17.22-.12-18,15.56-6,13.47-16.66,2-19.43,6.85-2.16,13.78-15.33,8.89-11.48,10-16.15-.6-8.51-7.3-5.29-12v-13l-18.21-11.15.78,14.5-11.83.67-4.74-3.11-7.94-1.85-6.73-7.49-3.56-9.77-7.11-4.67-5.51-7.26-12.73.64-6.86-4.27-15-5.3-8.49-11.53-6.51-7.86-7.59-10.64-3.29,9.19,4.69,6.13-4.09,5.44,12.8,9.31,7.83,7.72,13.92,3,17,4.6,8,8.58,1.24,11.85,12.8,5.94,5,9,12-.59,16.16,4.2,9.81,10.78,10.56,10.69,8.44,6.76-.19,7.76-.27,6.92-2.71,9.49,12.93,2.88,14.75-3.1,7.33-12-3.44-10.27,9.46-2.52,7.17-11,19.71-9,8.2-11.52,13.49-3.62,15.43,2.66,20.84.7,21.32,7.41,16,7.24,14.25,9.45,16.39,3.34,15.51.17,11.15,9.57,8.89,10.34,1.95,8.42,4,14.15,13.19,16.78,2.67,12.61,4.47,6.55,5.9,6.75-4.57,9.79,10.71,8,2.63,7.19.11,4.89-4.9,6.82,2.4,7,4.22,9.51,18.53,5,2.08,9.14,16.14,2.48,9.91-4.51,9.12-1.6,9.93,2.39,12.3-6,8.92-9.36,9.74,11.22.26,10.39-8.2,8.68-2.11,7.59-10.69,9.12-8.67,11.11,4.51,13.51-15.5,11.44,2.72,7.52-10.45,12.36-24.24,7.72,5,13.64-1.55,6.3-11.63,5-10.38-4.13-9.66,6.58-14.46-2.54-7.52-15.53-12.44,1.6-5.7,9.31-15.76-.92-3.12-9-6.49-6.87-6.45-8.85-11.52-13-7.82-17.87-3.16-15.5-2.92-7.86,1.56-9.83-17.61-2-12.54.4L2734,2256.89l-16.39,5.25.77,8.38-10.16,11.41-16.5,4.6-8.18,3.39-3.3,8.07-9.92,2.61-12.79,4.43-5.09,7.08,1.87,9.11-13.91,3.29-4.41,7.38-9.85.47-6.4,8.75-19.15-1.74-21.77,5.28-12.7-6.42-13.3-5.47-7.46,7.09-.4,12.1-15.7,8.91-.85,4.85-5.09,3.35-15.16,1.81-15.32,6.76-19.74-2.09-12.88-10.61-16.64-5-9,2.61-6.3-4.15-16-.58-5.4,3.83-19.12-4.29-16.93-9.46-2.55-11.76-20.52,1.89-12.09-4.1-.83-8.22-12.37-8.54-.62-12.28-.52-9.27.28-5.78-.16-11.3-4-13.91,4.21-14.51-5.19-7.14,6.39-6.64,5.53-9.57-9.21,3.35-3.4,3-7.15,4.06-9.41,5.56,6.08,14.9-13.3,8.69,14.82,14.8,5.7,14.88.2,10-8,1.81-3.73,6.32,8.72,9,4.84,8.48,8.91,7.06,8.88,9.8,13.79,8.41-1.19,6.83,0,6.82,15.93-3.85,9.92,2.8,7.33,3.88,16.85.66,12.15.33,12,4.45,9.55-5.78,8.08.21,4.44,7.56,9,9,13.13,3.51,10.55,6,14.16,6.92,11.72-1.32,7-2.07,13,2.37-8.32,6.42,1.73,6.63,2.62,13.39-1.45,9.54-17.08,2.63-5.19,8.19,11.68-2.36,14,1.57,9.67,7.17,16.23,1.42,16.59-2.2,2.51-10.71,7.76-4.32,9.1-.9,8.72,3.52,11.41-4.35,14.85-3.21,12,7.22,3.55,5.33,14.61,1.93,20.68,5,11.18,5.54-4.8,16,5.65,14.7,7.63,11.5-10.17,5.61,11.38,10.54-9.64,4-8.44,6.31-1.67,8.52-7,5.26-9.38,1.42-9,9.2-10.07-3.6-17.58,1.26-7.83-8.33-13.23-.81-9.17-1.2-9.88-9,2-14.9-19.11-5.37-20.17-4-8.71-8.64-19.93,2.49-15.93-3.39-7,3.5-4.42,9-.24,11.56-5.68,10.6-5.76,2.5-4.47-.91-11.57,2.63-10.35,14,7.87,16.1,12.67,13.33,16.49,3,3.87,6.5-7.75,1.87,2.28,10.37,10.72,13.38,3.72,13.79-4.41,7.06-2.72,7.32,7.74,10.55-22.83,5.34-10.49,12.44-16.45,5.44-5.31,16.81-12,12.52-15.13-4.65-10.71,17.21-12.94,13.11,3.4,9.33-4.28,6.85-.12,17.09-19.64,4.18,8.24,9.1-1.45,6.84-10.84,4.76-2.78,7-3.26,5.19-7.52,3.07-11.09,1.9-6.9,9-14.06,6.12-14.13,2.55-.74,10.44,4.83,13.33-5.73,10.81-2.11,6.56-5.06,6.56-10.19,6.77,4.2,9,7.1,8.1,1.09,9.93-3.9,11.07L2281,2927l3.59,14.89,6,13.36-6.48,8.24-6.49,5.69-1.86,6.11-10.56,3.63-11.24,7-16.87-8.63-15.45,2.77-15.54.69-9.94-11.85,5.85-13-2.57-14.87-14.35-7.53,2.42-10.4-5-3.09-2.69-11.79-7.27-7-8.95-14.56,3.83-10.16-5.93-10-9.27-11.21,15.08-.56,5.36-7.16,1-12.25,17.62-4,9.29-6.79,7.63-5,1.69-13.75,10.1-13,1.6-9.43-1.58-8.31,10.11-7.74-5.36-11.4-8.18-8.84-7.61-10,16.36-6.77,3.45-7.07-5.82-12-13-10.42-7.1-11.9,6.83-6,13.88-3.4,1.37-12.75-9-12.13,3.17-8.8,3.16-7.48,10.64-2.19,11.22-13.43,1.76-15.19-14.69,5.93-9,13-19.14,10-5.29,13.94,4.63,12.69-8.4,7.8-13.58-3-4.75,13.59,13.76,9.82-3.91,8.77-7,7.55L2164.9,2714l-4.62-3.84-8.4,3.08-7.6,7.22-8.28,5-1,7-8.91,2.54-3,10.17-8.36,8-12.23-8-14.07-1.93-8.18-8.53-14.09,1.82,2.8,12.38-.12,11.49-15.92-1.48.31-13.67-19.55-.45,1.09-13.41-13.08-5.79-.91-8.47-2.23-11.59-14.35-7.77-10.71-14.1-11.51,7.47,3.38,10.86,4.31,11.53-1.47,7.72,14.25,7.74,15.15,4.1-2.34,12.53,4.38,9.21,11.56,5.78-3.1,9,7.31,12.16,5.86,12.79,4.55,10.8-12.93,2.48-17.8-4.69-13.08,6.19-10.65,14.85,6.27,12.44-20.28,2.44-2,6.46-3.27,5,1.52,11-18.21,10.9-20.37,8.87,3.58,17.87-10.45,5.23-31.65-8-29.14,15.86-10.63,16.87h-25.11l-5.88-15.85-3.53-6.65L1787,2888.22l-23.35-9.95h-16l-26.42-21.9-5.21-9.69-13,1.73-14.64,2.05-11.88,3.56-7.14,6.28-5.59-5,1.12-5.94-3.79-7.48-1-7.28-1.69-5.83-9.93-2-8.11-2.36.48-2.63-.7-6.62-3.32-5.79-5.53-1.07-2.16-4.76-11.3,5.06-7.52,3.83-7.24-3.58-8.91-1.14-8.2,5.34-6.4,4.59-2.81,6.41-9.66,5.74-4.13-12.92-8.1-.76-13,.27-8-7.89-.59-11.05-2.36-10.08-6.35-5.15,5-6.25-5.37-8.59-1.79-7.39,1.73-9.86,6.65-4.62,6.81,1,7.64-7.34-2.35-6.5-5.49-.85,2.28-8,7.9.13,9.44,3.44,9.19-4.21,9,.54,8.39,4.5,7.77-4.74,10.62,3.91,7.58-.61,5.82,11.5,11.06-4.11,8.32-4.31-8.32-8.91-4.62-5.63-3.76-10.78,11.54-6.61,10.79-6.76,7.5-8.35,9.45-2.32,1.74-7.12.65-10.09-10.07,8.72-11.08,8.87-8.87,6.55-11.09,4.57-9.45,4.75-5.65,3.18.12-13,10.29-1.93,5.77-12.06,7.41-.28,11.39-5.29,10.85-6.53,6.55-5.27,7.16-2.7-8.07-3.05-10.41,3.53-10.32,3.84-3.77,7.79-11-1.12-.67-4.49,4.89-9.64,7.75,1.22,9.71-8.36,6.68-4.21,3.16-5.39,3.25-4.67,0-9,3.14-9.56,4.39-8.8-.24-13.86,2.31-10.7,7.72-7.64.92-7.49,6.09-5.36,7.41-7.19,10.46-10.75,4.79-15.34,10.36-3.32,3.73-2.82,8-2,7.29-6.92,5.58-11.78,7.69-.32,5.71-3.53,5.18-1.25,7.43,2.18,6.47-2.26,5-9.86-.4-7.43-6.83,2.71-6.59.36-4.85,8-11.68.28-8.21-1.57-4.67,4.09-4.66,6.44-7.44,3.27-9,.76-9-5.43-2.59-6-1.17-4.55-.22-7.32-4.92,9.36,2.43,4.27-1.43,8.1,3.34,8.53-6,6.36-2.63,5.94-6,2.13-4.19,3-6.62,1.15-4.94,3.84-8.25,6.87-1.48,8.18-5.71,5.16,5.3,11.1-4.69,3.23-3.82,7.4-6.32,6.65.4,10.82-4.25,8.12-2.86,8.54-7.1-1.6-5.72,3.29-7.64,3.58-6.7,6.63-6.26,4.62-8.48,3.62-9.91-3.76-5.63,5.34-1.83,6.36-1.82,9.06-2.75,6.82-1.58,6.32-12.3.15.36,6.69-7.51,2.42-1.83,6.54-6.09.23,4.15,10.89-9.07,4.4-10.25,8.2-12.65-.43-13.45-7.52-2.18,10.59,1.94,8.17,1.49,4.61-3.42,5.37-10.29,5.08,3.09,8.85-4.31,6.25-6,4.69.81,8.92-7.43,1-3.93-4.2-5.25-.16-6.37-2.2-6.46-7.57-1.15,6.16-1,7.57L1439,2758.57l-6.58,11-8.61,2.36,1.68,7.61-4.58,5.32-4.25,5.91-6.38,7.31-6.39-.39-7.85-2-7.37-2.63-6.61,3.57-8.94-3-4.88-3.37,3-8.43,7.75-10.36,4.64-4.46,3.32-2.2.92-5.54,3.88-5.73-4.81-9.85,6.23-5.94,3.26-8.6,4.19-11.25,2.77-7.48-2-10.28,5.06-7.67,6.17-2.73,5.92.36,7.53-7.09,4.53-8.08-7.86-8.4-2.56-10.83.82-9.72,6.44-3.87-7.21-9.89-4.76-15.85,8.35-6.08-1.95-7.76-.43-4.23-2.62-8.39,2.4-3.87,8.14,1.37,11.9.69,2-9.84,9.56-5.6,10.58.05,6.7-4.75,4.89,3.37,2.24,5.69,8.59,2.07,1.39-7.52,3.71-7.46,4.36-8.92-4-6.85,0-11.58-6-14.5-3.41-11.54,6.07-3.67,1.73-3.35,1.29-4.91,1.31-7.83,3.76-6.12,3.34-3.62,2.66-6.82,7.48-8.82,9.71-3.93,6.61-6.78-3.34-6.12-8.56,2.2-5.87,2.43-10.69,6.91-12.63.39.42,10.93-4.36,2.91.58,5.55-3.25,4-3.64,9.07-10.34-.22,1.14,14.33-10,5.07-2,6.3-.24,4.52-1.8,4.94-9.37,3.11-12.06,3-4.91,3.61-4.14,4.88-12.2-4.12-1.16-5.21-2-6.11,8.48-4.83,3.18-6.66-8.54-.42-13.09,6.53-5.88-7.84-2.19-7.86,7.35-2.92,6.77-6.05,9.15-7.33-3.05-6.12.7-6.8,5.74-7.33,5.39-9.91,5.72-7.47,5.32-7.41,7.73-4.19,15.87-2.86-7.14-9.45,7.37-4.13.08-5.73L1453,2413l-8.29,6.15-2.84,5.19-2.68,2.68-.43,6.2-10.81-.59-1.68,10.07-3.83,3-4.83,3.7-9.91.42-6.11-4.65.87-4.85,7.39-1.46-9-3-8.62,2.25-7.44-1.48-6.36,6.08-1.21,11.57-7.8,7.38-10.44,3.12-1,8.61,8.39,6.9-9,10.51-9-5.78-6.54,8.52-5.95-1.32-3.93-4.35-9.27-5.49-4.74,4.39-4.39,6-12.58-5.75-5.58,3-5.37-1.42-5.43-5.73,3.8-10.4.37-5.23-3.38-10.15-9.22-.71-5,.3-5.76-5.12-2.15-6.84.81-5.88.87-8.4-3.35-9.56,8-4.45,5.31-8.17-7.36-9.26,1.32-10.62-4.46-7.7-3.4-7.5,5.26-12,8.47-5,8.6,4,4.41,6.29,6.17,2.45,6.86-8.2,7.61-3.24,17.7.89,6.72,12.81,5.5,3,3.53-6.67,4.69-.48,7.5,4.37,6.13.87,5.54,1.15,3.55,2.8,5.19,4.39,12.49,2.1-7.34-11.17-8.5-.67-5.68-1.76-3.27-3.67-3.45-4.78-6.79-5.63-5.69.85-1.24-8.48-9.59-1.23-3-8.36-8.4-2.49-7-5.77,2.19-6.66,2.9-6.37,10.55,3.13,6.36-3.34,7.47-2.16,4.87-1.25,3-1.38L1358,2310l-1.55-6.51-6.5,4.27-10.24-1.05-9.52,0-1.57-6.6,3-4.6,7.51-.8,9.56-1.71,1.35-8.64,5-5.91L1351.7,2267l-9.15.26-4.76,4.34-7.83-1.33-2.16,9.58-6.29,5.85-7.51,6.51-11.46-1.24.11-14.34-2.26-9.76,6.57-2.32,4.15-1.35-2.75-10.07L1303,2259l-6.26,3.85-5.29,4.6-4.17-2.17-9.24,4.09-6.44,11.18-9.27,7.56-7.89,4.59-3,5.78-1.46,8.08-.26,7.89-6.16,3.85-4.13-.59-4.08,10.68-10.71-1.7-1.85-9.18-11.16-.34-6.81,7.86-7.69.85-6.27-1.45-5.93,4.77-6.32,3-5.09,7.37-7.12,5.22-8,1.37-9.14,9.3-4.7-4.85-7.36-1-2.31,3.78-5.25,2.76.94,6.47-7.51,3.9-8.14,2.14-6.09-6.46-3.87-7.86-10-1.08-2.63-9.91,5.51-7.39,6.05-5.2-2.14-9.35,3-10.89,7.66-7.48,12.54-1.57.55-11.82,10.85.07,9.58-4.72-2.78-9.07,2.49-3.23,5.64-6.76,8.41-11.72,9-8.64,2.22-6,3.64-1,6,.15,4.31-5.64,7-5.88,9.89,1.83-2.74,9.62,9.08,1.89,6,4.32,7.25,1.79,7,2.68,9.78-10.66-10-10.81-3.57-12.49-11.16,1.25,2.29-11,5.09-5.12,8.39-.14,7.35,5.87,6.34-2.4,7.82-3.68,12.14-3.29,5.06-5.87,7.28,1.58,5.43-5.93-6.59-6.35-5.26-.2-4,7.06-8.71-.94-10.69,6.07-6.42-2.95-5.28,2.71-7.54-3.08-9.51,7.56-8.36-8.05,6.54-9-5-2.68-3,.34-1-4.1,6.47-2.93,6.54,2.38,6.29,6.26,7.29-5.77.78-6.21,3-4.34,5-2,11.28-7.88,8.76,1.59,7.26-4.34,3.69-6.36-3.27-7.65,7.52,1.35,9.21.59,5.07,1.8,4.45-2.07-3.87-4.94-10.38-.45-1.8-8.74,6.69-8.71L1293,2113l9,4.74,12-6.58,12.55-3.93,9.87-.13,7.67,0,7.49-1.16,7.4.53,3.79-1.76,2.85-5.27,10.4,2.43,12.08-9.88-9.68-9.77-9,2.85-9.21-1.43-8.27-5.45-7.94,6.49-11.68,2-11.9,1.37-9.82-3.62-7.45.22-10.38-1.48-4.84,1.4L1281,2080l-8.89-3.42-3.49,4-4.09,11.91-8.83-.89-11.86,4.28-10-1.79-5.74,3.31-2.25,7.17,3,12.83-9.78,10.46-11.38,8.06-3.91,13.24-7.1-5-5.49-9.42-5.46-11.21-14.31-5.91,11.42-5.48,3.69-5-8.78-8.18-1.65,4.82-2.58,2.56-6.52.07-2.29,4-4-6.65,5.2-12.41-3.42-5.49-10.68.39-5.59-6.87,5.55-1.91,2.47-3.07-3.84-8.61-9.72-2.79-4.28-9.19-6.42-5.66-7.25-3-6.41-.84,4.21-7.38-1.22-10.86,7.47-9.18,13.67-3.74-3.57-7.74-4.83-7.14,1.79-5.76,6.24-7.43,12.69,4-5.32-18.2,2.36-6.29,3.28-8.23-9.62-2.19-5.47-4-9.36-.8-10.49,5.47-5.57,12.4-7.79,4.52-8.51-6.27,3.65-4.12,1.33-5.91-5.41-6.18-8.11,2.71-4.22,3.27-.21,6.11-7.75-4.15-5.08-7.14-7.46,7-8.3-6.51,2.49-9.18-2.14-2.79-2-9.78Z"/><path class="cls-1" d="M2238.24,946.58l-2.8,7.41-2.21,5.66-7.47-4,2.26,9.54-1.08,5-9,6.59-9.49-7.15-10.12,1.19-17.79-7.95-12.76-.68,1.06-11,16.3-9.8,22.09,3.91,21.67-7Z"/></svg>