<svg id="Free_Land" data-name="Free Land" xmlns="http://www.w3.org/2000/svg" viewBox="0 0 4096 4096"><defs><style>.cls-1{fill:#83b24b;stroke:#587f1f;stroke-linecap:round;stroke-miterlimit:16.38;}</style></defs><path class="cls-1" d="M2986.75,1898.78c-7.17,9.63-8,4.73-3.25,15.26,3.74,16.08-1.38,12,11.67,17.26l5.9,9.12,4.53-4.22,4.93-1,7.1-4-1.62-7.49c.18-3.44.66-11.59.48-14.94C2997.49,1894.43,3018.22,1896.4,2986.75,1898.78Z"/><path class="cls-1" d="M2953.59,2079.07l20.24,1.85,9.78-14.42,15-5.33-5.91-7.2-9.75-5.67L2985,2032l-24.94-7-14.7,1.76-1.35,6.42.72,8-9.89,5.31c2.06,3,5,11.64,6.06,15.16l14.42,6.35-1.77,11.15"/><path class="cls-1" d="M2890.54,2597.67c10-3.31,30-10.46,39.78-14.35l11.74-9.06-5.13-10-17-6.49-17.2,5.57-19.08,5.72c-5.22,20.9-6.72,12.1,6.9,28.64"/><path class="cls-1" d="M2693.69,2751.1c15.81-.18,10.57,3.2,20.95-9.09l14.27-5.52,16.43-9.06c4.1-.83,12.68-3.8,16.64-5.28l-3-11.25-14.5-7.12c-1.32-5.47-5-16.1-7.76-21l-14.84,8.76-16.84-5.41c-17.48,10.25-11.06,7.23-30.79,5.79l-2.35,14c-9.53,6.72-7.74,3.46-9.85,15.14l8.7,9.74-2.27,8.75,14.92,4.55c2.25,1.37,8.18,5.63,10.3,7"/><path class="cls-1" d="M2497.38,2773l23.38,1.3,14.25-7.74-.92-8.87-2.74-9.8-10.71-10.78-12.8,1.22-8.53-3.21-13.77-1.64,2.08,14.54-7.08,9.31,16.84,15.67"/><path class="cls-1" d="M1187.94,2611.74a147.47,147.47,0,0,1,17-11.32l-5.94-8.49.34-14.77-15.49-3.61-4.37-2.71-6.67-4.07.27-5.93c10,6.13,7.21,4.91,18.79,3.8l-1.41-12.73a108.9,108.9,0,0,0-15.56-14.1l3.15-11.62,3.53-6.47,1.57-10.55-2.22-12.52-5.6-12.88c-4.2,1-12.56,3.19-16.7,4.4a134.14,134.14,0,0,0-10.56-18.33l-5.52,7.93c-11.68-4.54-8.86-2.91-20.67-.49l3.13-13.23-3.68-1.79-3.84-.29-5.9-6-9-5.54-3.19,4.09-6.19,1-.42,4.93,2.73,8.56-7.9,4.38-5.17,6.39-2.1,10.74c-4.22,8.87-4.84,6.22-2.45,16.18l3.88,6.81.78,6.21c3,9.12,3,5.18-5.33,10.45,5.45,9.23,4.54,8.45,13.67,14.07l8-8.8,10.52,7.38,6.61,6.76,3.59,7.85,9,3.25,6.14-.78c2.3,12.81.75,10.63,9.29,20.88,10.85,2.63,8,2.12,17.93-2.32-2.54,15.11-5.37,9.37,4.1,21.81,20.43,3.06,12.35-7.76,21.84,11.5"/><path class="cls-1" d="M1300.8,1241.9l3,11.61,7.58-3.89,2.82-4.56.74-4.79c-5-8.14-4.75-5.79-3.53-15.33l-4.81-3.47,1.22-7.38-5.4-6.4-7.6-4.27c-9.17,3.23-8.28-.39-7.78,8.46l6.64,3.06,1.94,12.71-8.39,3.84-3.39,4.49,6.59,4.07c6.36-5.89,3.07-4.6,10.35,1.85"/><path class="cls-1" d="M1068.21,1922.26c2.1-17.27,2.7-13.85-2.71-29.85l-12.66-9.05-6.54-22.1,15.18-6.66c10,13.87,3.35,11.35,20.23,10.47l-2.5-8.68.06-8.93-5.66-4.37-7.74-2.8-6.29-5.83-5-8.64,1.93-6.45-.34-3.62,3.29-4,2-10-8.7-9.14-1.57-9.17,6.22-1.78,9.12,1.87-.73-10.64,6.38-8.27-5.08-7.26-7.69-7.21c5.89-14.32-.55-12.32,15-9.52,2.18-9.81-.16-7.17,9.63-11.75l-1.65-10.54-10.25-9.06-2,4.74-8-4-3.17,4.6-6.49,1.94-8.8-21.8,2.51-26.68,9.89-12.21v-11.72l10-.08,4.66,5.34,5.86-4.17,4.41,2.18,3.55-.39,3.08-3.37-2.85-5.33,5.29-5-1.69-9.38-6.87-7.06-5.76-8.76-.78-15.43-2-9.39-.32-9.29,4.54-11.66,13,10,9.36-5.56-2.89-9.21-4.8-4.39.86-9.85,6.7-1.26,3-5.44-2.64-8,6.1-9.19,5.71,2,5.69-1.08,6.41,2.12,7.06-7.84,7.21,4,7.7-4.21,2.53-12.35,5.59-5.33-1.51-6.87-5.61-5.49-8.58,1.8-.31-7.5,1.5-9.49,8.62-11.31-6.76-9.82-8.42,1-8.47-3-6.34-3.34-8.33,1.38c-7.8,7.32-9.46,2.65.89,12.68l-10.44,4.72-4.56-2.18-6.66,12.33c-3,5.8-8.24,18.41-13.44,22.83l-7.9,1.5-8-3,2.91-6.31-1.24-8.06.33-12.36-5-9.66,1-10.48c13-2.32,7.77.53,13.38-14l6.07-4.52,5.22-6.8,7.51-5.54c5.1-2.21,15.45-4.6,20.92-5.37l7.41,1.25c2.81,3.42,8.61,10.93,11.4,14.45l11.89-9.66,13,2.74,9.5.34,7.08-3.8,9,1.78,8.56,4.68c1.73,15-2,10.43,11.2,17.35l11-5.74.5-9.81c5-8.58,4.56-6.51,3.54-15.87l-3.1-7.27c3.07-4.86,11.8-12.92,15.92-16.88l-1.42-9.85,1.39-10.52,6-9-8.71-2-5-4.14.78-8,5.32-6.54,2.94-13.52-1.73-12.46,9.85-5.94-2.38-12,8.18-4,3.7-3.88,8.7,4.88,11.83,5,12.66-3.17c-1.87-4.74-3.71-13.54-5-18.36l10.08-2,16.53-.45-5.19,12.2-1.25,10.51-5.09,2.43c-4.37,10.26-4.57,5.69,5.76,12.49l8.46-5.38,2.52-8.6,3.84-6.41.79-6.61,3.32-6.81,10.63,2.46-1.72,6.73,3.18,4.58,3.46,5.87,7.69,4.68.71,5.83c1.93,3.6,4.85,8.58,7.42,11.47l-7,9.74,10.37,15,6.49-14.73,7.45-6.87.39-8.52,1.36-6.69,3.21-5.22,6.43-1.54,4.51,5.71,1.83,9.14,5.77,4.26,1,5.88,6.38,1.27,5.69-.61,9.32,5.73,12.42,1.53,8.67,8.36,1.45,11.81,6.15,5.39,1.39,8.57,6.57,4.45,3.14,6.39,1.72,8.16c1.62,4,3.48,13.33,4.36,17.61,2.32,2.23,6.9,7.09,9,9.53,2.12-4.34,6.59-14.37,9.49-18.41l6.59-15.86,3.44-5.65,4.39.14,1.91-7.5,7-1.59,6.76.55-.26-7.17-2.38-8.36-3.81-8.22-6.9-5.85,4.85-10.37,10.08,1.62.92,13.37,9.67-5.83,2.53-7.84-1-6.37-.9-5.78-5-4.79-4.51-.62.51-6.94,3.33-8.83,5.6-8.66,9.87-8.46,1.62-14,1.34-9.58,5.94-6.94-7.33,1.46-9.91,4.94c-.59,14,1.27,10.47-7.2,20.64l-10.48,2.26-9.1-1.06c-5.41,3.1-13.7,7-18.78,10.65l-5.33-7.24-2.62-7.95-10.17.66-6.72,9.53-9.87-4-2.36-9.81,5.18-6.56,6-1.46-.3-3.42,1-3.18,4.57-2.8c2.14,1,8.31,3.65,10.73,4.35l7.31-10.73-8.37-3.71.49-9.21c9.37-3.68,7.21-7.34,8.67,4.29l4.91,4.34,7.28,2.36c2.58-.56,7.74-1.86,10.31-2.48l4-4.34,5.93,3.51,4.79,4.37,7.36,3.15,6.69-4.75,3-4.51,7.34-1.35-5.85-7.63a55.4,55.4,0,0,1-4.69-12.08l-9,.62-6-7.4c9.2-6.66,3.91-7.47,16.35-3.05l2.23-9.38,9.05-3.6,4.84,5.86,6.7-.4-2.18,5.81-4.28,4.17c9.24-1.46,7.94-.79,14.47-6.63l9.06,2,1.89-11a85.22,85.22,0,0,1,12.38-6.67c3,1.69,12.12,2.31,15.55,2.71l4.81-6.9,7.52-2.48,3.73-6.36,4.47-3.73-.69-5.74,8.89,3.78c-3.68,10.64-3.63,6,5,13.44l-.88,7.4.92,7.63,10,.08,10.24-3.37,8.85,2.86,5,5.25.67,10.66,3.17,8,6.52,6.25,10.39-8.83,15.31-4.22-.83-17.2-8.16-1.78-8.33-3.41-1.87-9.63-6.8-8-1.75-10.78,4.43-8.85,4.19-8.89-9.64-3.62-4.79-3.68.82-7.87-10.36-4.13,2.15-9.07,5.17-6.49a95.21,95.21,0,0,0,15.16-.92l7.91,2.7L1689,1110l10.13,3.3-4.53-11.33-7.94-7-2.92-8.89,1.23-8.37,13.21.38c8.64,11.31,4,8,16.79,6.13l12.35-2.11c-4.77,13.21-6.34,8,3.54,17.19l9-5,3.27-11.43-.12-11.59-.32-6.48,4.74-6.12-.38-13.18-4-8.2-7.25-3.32-9.22.81-.48-11,5.76-5.78-2-5.71,2.95-7.82.64-6.75,2-9.14-.18-9.12c5.7.75,17.87,3.81,23.64,4.68l4.61,6.08,7,5.54,3.5.9,7.49-2.9c11.91,9.51,10,4.09,1.61,15.5a110,110,0,0,1-.71,27.32l-10.44-.24-7.88,2.52-3.36,5.54,6.91,6.23-.75,5.32,9.2,5.13,4.17,4.2,9.33-1.64c15,2.3,13.18-2.94,9.32,10.93l6.92,4.23,5.61-2.33,4.38-6.81-7-12.88,9.9-.6,7.7-4.77,11.07-3.9-2.08,8,8.28,6.34,5.42,8.54,6.89,1,8.16-4.35,6.25-9.57-4.8-13.76-11.67,1.49,0-9.25,3.1-10.56,9.52-3c3.83.12,10.84,1,14.46,2.27l7.47-5.18c10.06-.48,7.22,0,13.41-6.64l11-2.59,9.09,6.17,4,4.86.43,2.17,6.23,2.26,3.47,12.64,11.51,4.19,7.81-13.55-1-12.4,6.08-11.27,9.76-8.27,5.67,9.88,15.86-7.47,8.89,1.37,5.49,7.32,3.25,9.67c-1.23,4.09-3.53,10.58-4.88,14.47l-4.48,6.85-1.7,11.18,7.67-3.76,2.7-11.44,7.36-9.29,5.67-9.33,9-1.28,14,2.54,11.54,8.39-3.65,6.62.59,6.64,7.92,6.45,7.16-6,8.35-9.65c13.93,2.2,9.88-1.76,20.23,9.55l-8.1,5.55,1.25,5.71-8.41,7.18,6.58,10.78c4.87-17.07-2.66-3.91,22-13.83,3.46,3.06,10.68,7.35,14.46,9.62l5.57-2.14-1-7.28,7.95.08,3,2.39,6.35-1.44.57,8.75,2.39,6.9,4.26,7.49-.1,13.51-5,5,5,6.28-2,9.65,2.11,6.5,5.8,5.56-5.26,5.76-11.11,5.18c.67,3.27-.33,12.2-.87,15.6a136,136,0,0,0,2.33,14.49l-.17,5-2.15,7.85,5.44,10-6.06,4.65-2.87,11.79c-2.48,3.49-7.1,10.66-9.71,14,2.26.85,6.65,2.3,9.07,2.38l1.81-3.94,2-3.58,7.14,1.26c7.74,11.3,2,8.31,19.08,3.91l8.83,9.31,7.14,3.21,8.23,6.43,8.25.43,4.82.25a51.81,51.81,0,0,0,12.71,1.16l9.07-8.93-17.28.59c-18.9,1-6.68,2-18.81-4.61l-7.64-9.76c-4-1.86-12.91-5.07-16.35-7.88l-.09-7-4.74-4.74-4.65-5.88.68-7.47,6.4-9.9-4.36-5.05-3.57-6.89,1.12-3.63,5.24-2.6,1.93-9.83,1.24-8.62c12.47,5.75,7.55,6.25,12.46-5l8.62-11.82,6.86,6,2.16-12.68c-14.34-6.14-11.45-.83-14.68-14.32l-.73-7.27,4.95-7.2,5.14,6.12,6.86-6.08-4.69-7.5,1.22-9.36,7.62-.95,7.68,7.7c4.86-1.21,14.44-2.87,19.24-4.29l5.44-2.46,9.08-3.72,4.23-5.62,4.32-2.76,5-2,4.22-3.33,8-1.13,5.85-6.37,6.69,4.66,1.07,4.54-3.18,6.13,12.19,3.33,9-7.69,7.8,1.34,7.87-.72c4.34,1.08,13.75,3,18.24,3l5.66,3.69,2.26,6.22,10.74,5.23,7.41,7.34c2.68,3.1,7.52,9.32,9.76,12.72a134.19,134.19,0,0,1,15.93,2l2.64-6.11c-9.69-1.84-6.86,0-4.13-7.67l-1.05-3.65.24-5.44,2.83-6.11,5.47-7.48-12.89-7.11,4.32-9.33-5.87-4.43.35-5.57,6.86-2.21,6.72-4.17-.21-6.92,4.85-2.88,3-6.05,9-1.64,9.56-6,10.95,7.24,3.7-10c5.34.92,14.11.32,19.53-.13l4,.17,5.54,1.56,4.3-1.28,6.27.39,7-2.34,4.25-10.69,7.53-9,11.9,3.82,3.19-8.76,1.19-11.08,7.72-7c14.69,1.09,8,4.35,13.83-11l16.68,1.56,6.61,7.92,12.63-4.86,3.86,6.29,6.28,2.59.66,8.24,4.19,7.46-4.62,9.3,7.43,7-.12,5.42-5,4-6.05,9.14,5.43,5,2.23,9.83a99.56,99.56,0,0,1-14.4,8.34c-1.79,2.69-4.33,8.76-5.43,11.81l5,10.1-4,9.92-7.46,8.13-5,9.45-5.61,11.29-8.1,9.85-10.39-.52-8.51,2.26-8.24-3.76c-10.69,6.27-5.46,5-18-1.76l-3.88,9.5,2.42,5.84.67,6.1-3.81,3.19,2,5.2,4.09-3.06,6.68,1.31,2.71,5.79-2,5.22c.44,10.56.39,7.53,6.74,14.57a124.46,124.46,0,0,0,11.52,11.79c4.52,9.55,2.21,6,12.17,8a113,113,0,0,0-7.19,15.89l11.58-5,4.93-10.71,4.52-3.72,4.42-1.67,7.43,10.23,6.86-2,9.18-5.09,7.89,2.83,9.51,4.44-3.47,8.58,5-.07,5.85-1,10.29-.08.91,10,2.37,6.89,9,4.53,7,6.62,7.11-.61,4.88-2.89,3.81.39,7.38,7.26,11.72,1.86,6.25,13.16c3.25,5.59,4.49,5.93,4.59,12.76l6.63,4.49,2.25,9.27,8.81-.88c3.05,6.27,2.5,3.93-1.82,9l.57,5.4-3.57,4.81,5.78,6.82-7.43,6.49-3.37,6.58-5.48,7.24-6.92,5.63c4.51,11,6.44,6.21.42,16.26l.31,10.35-9.68-.13c-13.4-.45-9.27-3.15-18.86,6-13.78,1.79-8.2,2.18-17.43-6.91l-9.85-7.4-4.89,1.49,3.18,11.52,10.1,5.75,4.54,9-2.87,8.19,5,3.66-2.27,6.48-8.37,0-8.56.65-7-2.28-3.51,7.57-9.71,6.55-11.37,1.51-4.72,5.85-7.65,2-11.19-.62c-4-1-11.94-2.5-15.77-4.07l-2.89-3.56-4.3-2.68-9-2c-4.23-9-1.36-7.2-9.83-.79l4.7,9,12.51,3c3.14,1.79,11,5.75,13.89,8.19l2.42,6.94,7.21,5.61,11.53-1.22,4.06-6.64,8.18-2.53,6.72.93-3.85,3.74-6.14,3.34c-1.34,3.83-4.52,10.63-6,14.24.37,2.09-.07,8.18-.35,10.34l-8.58,3.26-7.11,7.17-9.29,3.1-7.6,1-4.81,4.49-5.13-1.84-8.51.1-8.55,7.95-12.32,5.3-8,5.36-1.25,5,5.92,1.35,9.37-1.31,4.79-5.75,6.2-5,10.35-2.82,14.22-4.22,10-.72,3.21-3.82,4.49,7-1.81,3.76-6.18,5.3-12.22,3.17c3.13,8.61,3.48,8.21,2.36,17.36l8.4-3.57,2.51-8.59,6.76-5.72,5.82-5.56,3.11-9.19,4.63-5.74,5.72-7.79,9.63-1.36c-8.82-10.07-7.15-5.86-5.55-18.25l9-4,4.75-9.92,8.85-2.47c7.47-3.24,17.84-7.46,24.89-11.59,2.58,2.17,8.15,6.66,10.53,9.12l9.73-.68,5.47-2.88,1.53-5.59,1.13-5.22,6.89,1.36c4.91,4.13,10.44,11.34,14.32,16.45l11.35,3.18,4.83,1.47,8.14,11.14,8.07,8.81-4.09,8,11.16-1.38,5.93,4,3,3.64-.67,5.52c3.56,3.45,8.83,11.86,11.42,16l10.53,7.16-4.28,4.49-4.28,8.88,7.09,2.64,5.45,6.13.05,5.75-6.14,7.66,2.76,10.86c-14.3,19.18-2.26,14.26-21.62,21.17l-5.43,7.74c-3.72,1.11-12.42,5-16,6.76l11.63,3,1.63,12.67c.26,3.84,1.27,10.94.8,14.72l-7.15-3.58c-5.77,11.8-7.08,7.08-2.6,17.57-3,4.14-7.6,12.6-9.86,17.15l-.93,8.9,8.35-5.92,8.28-7.86-2.4-8.51,4.3-8.2,3.48-2.19.79-3.61,7.41-2.21,4.52-5.26.47-4.19c5.34-5.35,11.34-13.48,16.28-19.14l4.12-8.65-7.22-8.35,2.3-5.16,10.58-2.41,8.23-6.63,10.73,11.55,8.15-1.89,6.09-3.09,5.77,3.34-1.88-8.53-6.72-2.25-9.33,2.67L2767,1526l-2.69-8.79,5.25-2.59,3.08-4.5-.66-7.29-3.57-7.15,0-6.48,5.33-.75,6.72,2.78,6.83-14.29,9.82,3.71,5.59-9.17,13.63-5.54,9.65-11.17,8.54,2.24,8.75-.68,8.19,1.83L2860,1463l-3.56,7.42,6.4.14,6.15-.13,1.88,7.21c-1.26,12-2.83,7.82,8.15,8.86l1.22,8.73,7.28,10.84-.95,6.06-7.59,4.42c-.1,1.83-.83,7.53-1.79,9.23l1.49,7.39-5.89,9.94-10.15-1.29-7,9.86-8.87,6.3-4.51.77-.14,10.57,6.66,12.49-.14,15.54,7.3,7.11,8,.6,3,9.29-5.3,10.65,1.73,9.83c-.95,2.69-4.33,8.58-5.49,11.27l8.5,3.32,4.61,5.81,2.78,12-6.75,6.23-9.92,4a137.15,137.15,0,0,0-4.28,21.6c-3,3.06-7.46,8.94-10.27,12l.24,7.58,2.17,7.29,8,6.76c-.3,11.41-1,7.32,7.11,13.57l.64,9.28-5.14,2.17-9.23-3.12-9.17-6.25c.94,4.84,3.36,14.51,5.32,19l-5-.8-6-2-8.17,1.06-4.85,4.06,7.73,3,7.56-1.63,6.45,1.42,5.72,4.3,9.8,8.1-13.61,3.68-8.29-.88-7.83-5-7,3.29,5.31,6.26,9.6,3.89,7.68,3.24,3.46,8.47,1.13,6-6.59,1.77-8.25-1.67-5.43-.67-9.23-5.7L2804.8,1809l-9.31-2.93-5.4-4.26c-1.15-4.1-3.93-11-6.32-14.58l-4.3,2.21.92,9.45,6.28,3.22c1.26,2.79,3.21,9.21,4.59,12l5.81-.71,11.65,4.44,9.84-.59,8,5.25,4.36-1s3.54-2.86,5-2.58,2.72,5.54,4.31,6.12a10,10,0,0,0,6.3,0c1.84-.76,5.77-3.53,6.86-5.35s-.47-4.39,1.38-5.27,5.36,2.68,6.49,4.86,1.36,4.79.45,6.31-8-.36-9.76.3-1,5.65-2.22,6.66-5.34,1.19-7.19,2.62-2.42,4.46-5.81,4.59-5.85-5.52-8.47-5.75-8.54,5-10.89,5.15-6.88-1.75-6.88-1.75-4.33-1.12-6,.11-2,11.14-3.11,11.79-5.82-.94-7.82-.15-5.36,8.37-4.64,9.78,8.24-1.34,11.6-3.19a38.16,38.16,0,0,0,6.72-5l6-1.76,6,2.52,11.52-1.12c14.1-1.37,32.31-8.28,39.16-7.34s-.66,13.47-6.51,14.2c-3.67.46-9-2.58-10.9-1.59s-2.74,11.17,1.81,11.57q7.88.69,15.76,1.44a17,17,0,0,0,4.89,0c2.32-.44,4.33-1.8,6.42-2.88,2.72-1.4,7.19-3.35,8.69-2.85s4.11,8,1.79,11.1-25.85,2.34-26.36,6,8.74,5.6,11.19,10.73c3.5,7.33,4.06,5.28,10.35,8.47,4.64,2.35,2.71,18.76,3,23.39.5,9.07,1,18.26-.51,27.27-.81,4.89-7.47,5.52-7.67,12.14s10.11,15.39,6.14,19.25-16.76-2.68-22.92,2.34a21.53,21.53,0,0,1-3.93,3.1c-4.28,2.06-10.41-.77-15-.62a47.42,47.42,0,0,0-14.25,3.11c-9.3,3.38-18.75,18.25-23.33,19.48s-15.8-3.36-23.59-.83a56.69,56.69,0,0,1-6.63,2.22,24.91,24.91,0,0,1-7.11,0c-9.57-.94-26.31.08-28.72-2.81s5-9.41,4.49-12.76-12.08-2.21-17.41.36a27.58,27.58,0,0,0-4.72,3.09c-8.26,6.36-14.93,21.95-18.39,24.53s-19.57,2.83-29,5.88c-2.28.74-4.65,1.58-6.28,3.34-3.54,3.82-1.15,9.61-5.57,14-3.67,3.63-8.45,5.89-12.69,8.86-4.47,3.14-10.69,8.51-13.67,8.89s-17.41-1.18-22.52-8-4.58-21.5-5.18-24.32-8.13-6.74-12.54-8c-7.34-2.1-6.35,7-5.57,8.62s-.14,2.34-1,3a3.32,3.32,0,0,1-2.09.36c-8.55-.43-18-2-24.34-8.26-7.32-7.21-8.29-22.43-19.75-25-3.16-.71-6.44-.57-9.65-1-5.33-.69-10.33-2.87-15.25-5-3.38-1.48-6.83-3-9.54-5.5-5.7-5.25-10.77-13.33-15.57-19.55-3.57-4.64-12-11.18-9.37.65.51,2.3,3.65,4,3.84,5.85s-5.37,2.71-4.12,5.45,23.64,17.29,40.29,21.46c4.93,1.23,10,2.63,14,5.76,6.47,5.06,1.89,15.66,9.33,19.48,2.19,1.13,4.83,1.28,6.89,2.64,3.05,2,4,6.1,6.63,8.65,6.11,6,16.8,1.65,24.28,4a18.85,18.85,0,0,1,4.63,2,23.09,23.09,0,0,1,3.81,3.32c7.31,7.35,18.2,15.13,23.75,23.83,4.71,7.36-3.49,21-1.15,24.69s17.74,6.7,25.47-.17,3.19-19.26,5.74-22.16,7.95-1.66,10.66-4.71,4.77-6.73,8-9.2c4.24-3.22,9.93-3.94,14.34-6.93,10.36-7,12.47-15,26.41-15.54a138.92,138.92,0,0,1,76.33,19.66c14,8.41,22.69,9.29,38.6,10.27a14,14,0,0,1,3.83.59,13.65,13.65,0,0,1,4.36,2.87,130.75,130.75,0,0,1,11.17,11,26.4,26.4,0,0,1,4.09,5.56,30.25,30.25,0,0,1,2.24,7.49c2.78,13.19,9.07,21.25,17.19,31.58l2.66,12.61,4.48,6.55,5.9,6.74-4.57,9.8,10.71,8,2.62,7.19.12,4.89-4.91,6.82,2.41,7,4.22,9.51,18.52,5,2.08,9.14,16.15,2.48,9.9-4.51,9.12-1.61,9.94,2.4,12.29-6,8.92-9.36,9.74,11.22.26,10.39-8.19,8.67-2.11,7.59-10.7,9.13-8.66,11.11,4.5,13.51-15.49,11.44,2.71,7.51-10.45,12.37-24.23,7.71,5,13.64-1.54,6.31-11.64,5-10.37-4.13-9.67,6.58-14.45-2.54-7.52-15.53-12.44,1.6-5.71,9.31-15.76-.92-3.12-9a115.81,115.81,0,0,1-12.94-15.72l-11.52-13-7.82-17.87c-1-6.16-3.52-17.95-6.08-23.36l1.56-9.84-17.61-2-12.54.39-20.58,12.46-16.38,5.25.77,8.38L2715,2282.61c-6.35,1.49-19.05,5.28-24.67,8l-3.31,8.07a235.41,235.41,0,0,0-22.7,7l-5.09,7.08,1.86,9.11-13.91,3.29c-5.77,9.7-2.61,7-14.25,7.85l-6.41,8.75-19.15-1.74-21.77,5.27-12.7-6.41-13.3-5.47-7.45,7.09-.41,12.1-15.7,8.91-.85,4.85-5.09,3.35-15.16,1.81c-19.89,9.27-14,6.45-35.06,4.66L2467,2365.6l-16.63-5c-10.06,2.41-6.6,4.42-15.28-1.54,0,0-13.75-1.74-16-.58s-3.45,3.43-5.4,3.82-19.13-4.28-19.13-4.28-15.08-6.64-16.93-9.46-.36-9.85-2.54-11.76-16.32,3.16-20.53,1.89-6.36-7.78-12.92-12.32-12.09-3.64-13-20.82c-.66-7.56,2.24-9.73,1.61-19.35s-5.72-16-6-20.91,4.32-9.92,4.2-14.51-5.16-4.6-5.19-7.14,3.47-3.44,6.39-6.64,6.29-7,5.54-9.57-5.8,1.51-9.22,3.35-8,6-10.54,7.07-8.33,1.75-9.42,5.55,7,12.1,6.09,14.91-13.49,3.72-13.3,8.69,12.83,12.92,14.82,14.79,4.16,9,4.7,10.88,2.05,12.77,1.19,14-5.73.34-8,1.81a8.5,8.5,0,0,0-3.73,6.32c.07,1.76,6.87,7.32,8.72,9s2.4,5.23,4.84,8.48,6.89,5.28,8.91,7.06,6.42,7.47,8.88,9.8,13.08,6.69,13.79,8.41-2.23,4-2.19,6.83-1,5.36,1,6.82,11.93-3.74,15.92-3.85a15.56,15.56,0,0,1,9.92,2.79c2.89,2,4,3.06,7.33,3.89s21.92,1.65,29,1,7.12,4.82,12,4.45,6.38-4.75,9.54-5.78,6.39-.75,8.08.21,10.87,14.72,13.49,16.58,10.56,3.14,13.12,3.51,20.42,12.24,24.71,12.92,11.73-1.33,11.73-1.33a22.18,22.18,0,0,1,6.94-2.06c3.1-.16,12.5.83,13,2.37s-7.79,4.18-8.32,6.42-1.22,2.54-.26,6.63,4.62,13.39,4.62,13.39c.53,1.72.46,8.2-1.45,9.54s-14.45,1-17.08,2.63-6,7.16-5.19,8.19,8.58-2.2,11.67-2.37,10.65.26,14,1.58,5.83,6.06,9.68,7.17,16.22,1.41,16.22,1.41l16.59-2.19,2.52-10.71,7.76-4.33,9.09-.89,8.73,3.52,11.41-4.35,14.84-3.21,12,7.22,3.55,5.33,14.61,1.92,20.68,5,11.19,5.54-4.81,16,5.65,14.71,7.64,11.5-10.17,5.61,11.38,10.53-9.65,4-8.43,6.31-1.67,8.52-7,5.25-9.39,1.42-9,9.21-10.07-3.6-17.58,1.26-7.83-8.33c-6.13-.43-16.6-.93-22.4-2-13.66-12.65-9.53-5.6-7.85-23.93l-19.1-5.37-20.18-4-8.7-8.64-19.94,2.48-15.93-3.38-7,3.5-4.42,9-.25,11.56-5.67,10.6-5.77,2.5-4.46-.91-11.58,2.63-10.35,14,7.88,16.1,12.66,13.33,16.49,3,3.87,6.51c-10.93,2.8-7.51-.31-5.47,12.24l10.73,13.38,3.71,13.79-4.4,7.06-2.72,7.32,7.73,10.54-22.83,5.35-10.48,12.43-16.46,5.45-5.3,16.81-12,12.52-15.14-4.65-10.71,17.21-12.94,13.1,3.4,9.34-4.27,6.84-.12,17.1-19.65,4.18,8.24,9.09-1.44,6.85-10.84,4.76-2.79,7-3.26,5.19-7.52,3.07c-14.1,2.26-9.81.61-18,10.86l-14.07,6.12-14.13,2.55-.74,10.44,4.83,13.32-5.73,10.82-2.1,6.56L2300,2876l-10.19,6.77,4.2,9,7.1,8.1,1.09,9.92-3.9,11.08-10.56,6.9,3.59,14.89,6,13.36-6.49,8.24-6.48,5.69-1.87,6.11-10.56,3.62-11.23,7-16.88-8.63-15.45,2.77-15.53.68-9.94-11.84,5.85-13-2.57-14.87-14.36-7.53,2.43-10.4-5-3.09-2.7-11.79-7.27-7-8.95-14.56,3.83-10.16-5.92-10L2159,2856l15.07-.56,5.36-7.16,1-12.25,17.62-4,9.3-6.8,7.62-5,1.69-13.75,10.1-13,1.61-9.43-1.59-8.31,10.11-7.74-5.36-11.4a182.86,182.86,0,0,1-15.79-18.87l16.37-6.77,3.44-7.07-5.82-12-13-10.41-7.1-11.9,6.83-6,13.88-3.4,1.37-12.74-9-12.13c1.64-4.12,4.34-12.36,6.32-16.28l10.64-2.19,11.22-13.43,1.76-15.19-14.68,5.93-9,13-19.14,10-5.28,13.94,4.62,12.69c-10.85,9.46-4.4,8.55-22,4.83l-4.75,13.59,13.75,9.82-3.9,8.77-7,7.55-13.56,6.36-4.61-3.84-8.41,3.08-7.6,7.22-8.28,5-1,7c-12.58,3.55-7.78,1-11.93,12.71l-8.36,8-12.23-8-14.07-1.93c-11.5-11.94-5.33-8.14-22.26-6.71l2.79,12.38-.11,11.49-15.93-1.48L2060,2746l-19.56-.45,1.09-13.41-13.07-5.79c-.27-4.95-2.11-15.17-3.14-20.06l-14.36-7.77-10.71-14.1-11.5,7.47c1.59,5.57,5.49,17,7.69,22.38L1995,2722l14.24,7.74,15.16,4.09-2.35,12.54,4.39,9.2,11.56,5.79-3.11,9,7.32,12.17,5.85,12.79,4.56,10.8-12.94,2.48c-20.56-4.73-12.88-7.21-30.87,1.5l-10.65,14.85,6.26,12.44-20.27,2.43-2,6.47-3.27,5,1.51,11-18.21,10.91-20.36,8.87,3.57,17.87-10.44,5.23-31.66-8.05-29.13,15.86-10.63,16.87h-25.12c-2.37-6-6.09-17.6-9.41-22.5-14.33-7.16-43.7-23.36-58.53-28.36h-16L1728,2857.05l-5.21-9.69c-11.73,1.51-28.33,3.18-39.53,7.34l-7.13,6.28-5.59-5,1.12-5.94-3.8-7.48a63.66,63.66,0,0,0-2.68-13.11l-9.93-1.95-8.11-2.36.48-2.64-.7-6.61-3.31-5.79L1638,2809l-2.15-4.76-11.3,5.06-7.52,3.83-7.25-3.58c-11.34-1.72-8-1.46-17.1,4.2l-6.41,4.59-2.81,6.41-9.66,5.74-4.13-12.92-8.09-.76-13,.26-8-7.89-.59-11-2.36-10.08-6.34-5.16,5-6.25-5.37-8.58-1.79-7.39,1.73-9.86,6.64-4.62,6.82,1,7.64-7.33c-2.89-7.47-.7-6.3-7.85-7.36l2.28-8,7.9.13,9.44,3.44,9.19-4.21c10,.26,9.31.6,17.44,5l7.77-4.74,10.62,3.91,7.58-.61,5.82,11.5c5.4-1.9,14.62-5.48,19.38-8.42-3.21-3.92-10.21-10.5-12.94-14.54l-3.76-10.78c5.83-2.8,16.81-10.06,22.34-13.37l7.49-8.35,9.46-2.32c1.44-4,2.32-12.92,2.38-17.21-8.39,7.3-20.81,17.76-30,24.13-6.85,2.2-19.71,8.78-26.19,12.5,1-16.11-4-11.92,10.42-14.94l5.76-12.06,7.41-.28,11.39-5.29c5-3,13.36-7.9,17.4-11.8l7.17-2.7-8.07-3.06c-5.09,1.38-15.72,5.63-20.74,7.37l-3.77,7.8-11-1.12-.66-4.49c6.38-11.07,1.5-10.13,12.63-8.42,4.24-3.75,11.59-10.13,16.4-12.57a107.88,107.88,0,0,1,6.4-10.07l0-9a95.7,95.7,0,0,1,7.53-18.37l-.23-13.85,2.3-10.7,7.73-7.64.92-7.49c7.2-5.7,17.38-16.66,24-23.3l4.79-15.34,10.37-3.32,3.73-2.82,8-2,7.28-6.92,5.58-11.78c7.53-.3,7.07.42,13.4-3.86l5.19-1.24,7.43,2.18,6.47-2.26,5-9.86-.39-7.43-6.84,2.71-6.59.36-4.84,8-11.69.28-8.21-1.56-4.67,4.09-4.65,6.44-7.45,3.27-9,.75-9-5.42a49.81,49.81,0,0,1-3.75-10.58l-.23-7.32-4.92,9.36,2.44,4.26-1.44,8.11,3.34,8.52-6,6.37-2.63,5.93-6,2.14-4.2,3-6.62,1.15-4.94,3.84-8.25,6.87-1.48,8.18-5.71,5.16,5.3,11.1-4.68,3.23-3.83,7.4-6.32,6.65.41,10.82-4.26,8.12-2.85,8.54c-7.93-1.85-6.06-2.33-12.83,1.69l-7.64,3.58-6.7,6.63-6.26,4.62-8.48,3.62-9.9-3.76-5.64,5.34-1.83,6.36-1.82,9.06-2.75,6.82-1.58,6.32-12.3.15.36,6.68-7.51,2.43-1.83,6.53-6.08.24L1552,2681l-9.07,4.4-10.25,8.2-12.64-.43-13.46-7.52-2.18,10.59,1.94,8.17,1.49,4.6-3.42,5.38-10.28,5.08,3.08,8.85-4.3,6.25-6,4.69.8,8.92-7.43,1-3.92-4.21-5.26-.15-6.37-2.2-6.45-7.57c-.93,3.66-1.63,10.08-2.16,13.73l-10.26,10.47-6.58,11-8.61,2.36,1.68,7.6-4.58,5.32-4.25,5.92-6.37,7.31c-6.7.16-15.44-2.65-21.62-5l-6.61,3.57-8.94-3-4.88-3.37,3-8.43c4.35-5.76,9.47-13.67,15.71-17l.93-5.55,3.87-5.72-4.81-9.86,6.24-5.93,3.26-8.6c2.22-5.61,4.93-13.53,7-18.74l-2-10.27,5-7.68,6.17-2.73,5.93.37,7.52-7.09,4.53-8.08-7.86-8.4-2.55-10.83.81-9.73,6.44-3.86-7.21-9.89-4.75-15.85,8.34-6.08a62.09,62.09,0,0,1-2.38-12l-2.62-8.39,2.4-3.87c4.39,1.05,15.39,2,20,2.05,2.57-13.37.87-8.62,11.58-15.44,10.78-.26,8.61,1.9,17.27-4.69,5.74,3.61,4.91,3.36,7.13,9.05l8.59,2.08,1.4-7.53c1.86-3.8,6.2-12.45,8.07-16.37l-4-6.85,0-11.58a174.28,174.28,0,0,1-9.46-26l6.08-3.67c2.49-3.82,3.65-11.56,4.32-16.09,1.85-3.22,4.51-7.39,7.1-9.74l2.66-6.82,7.48-8.82,9.71-3.93,6.62-6.79c-4.78-8.7-1.8-5.88-11.9-3.91l-5.87,2.43-10.7,6.9-12.63.4.42,10.92-4.36,2.92.58,5.54-3.25,4.06-3.64,9.07-10.33-.22L1472,2508l-10,5.07-2,6.3-.23,4.52-1.81,4.93c-5.36,2.27-15.86,4.69-21.42,6.11l-4.91,3.61-4.14,4.88-12.21-4.12-1.16-5.21-2-6.11,8.48-4.83,3.18-6.66-8.53-.42-13.1,6.53-5.87-7.84-2.2-7.86,7.35-2.92,6.77-6.05,9.15-7.33-3-6.12.71-6.8,5.74-7.33,5.39-9.91c3.16-3.94,8.18-10.87,11-14.89l7.73-4.18,15.87-2.86-7.14-9.45,7.36-4.13.09-5.74-1.41-5.5-8.3,6.15-2.84,5.2-2.68,2.68-.43,6.2-10.81-.6-1.67,10.07-3.84,3.05-4.83,3.7-9.9.42-6.12-4.65.87-4.85,7.39-1.46-9-3-8.62,2.25-7.44-1.48-6.36,6.08L1384,2455l-7.79,7.38-10.44,3.12-1,8.6,8.39,6.91-9,10.51c-12.19-7.44-6.86-7.64-15.56,2.74l-6-1.32-3.92-4.36-9.28-5.48-4.73,4.38-4.4,6.05-12.57-5.75-5.59,3-5.37-1.41-5.43-5.73c1.69-4.53,4.51-11.14,4.17-15.64l-3.38-10.14-9.21-.71-5,.29-5.77-5.12-2.15-6.83c.43-3.09,1.43-11,1.68-14.28-3.27-11.8-6.61-7.61,4.64-14l5.31-8.17c-7.93-11-8.06-5.15-6-19.88-2.55-3.55-6.1-11.26-7.86-15.2l5.26-12,8.47-5,8.6,4,4.42,6.29,6.17,2.46,6.85-8.2,7.61-3.24,17.71.89,6.72,12.81,5.49,3,3.54-6.66,4.68-.48,7.5,4.37c3.26.15,8.57,1.46,11.67,2,11.46,9.33,6.58,6.68,21.24,9.29l-7.35-11.16-8.5-.67-5.68-1.77-3.27-3.66-3.44-4.78-6.8-5.63-5.68.85-1.25-8.48-9.59-1.24-3-8.36-8.39-2.48-7-5.77c.79-3.43,3.58-9.88,5.09-13l10.55,3.13c5.12-3.28,12.89-5.4,18.71-6.75,1.43-.61,5.1-2.38,6.59-3.06l-1.56-6.51-6.49,4.27-10.25-1-9.51,0c-1.31-6.88-2.89-5.09,1.4-11.2l7.51-.81c11.85-2.44,9,.85,10.9-10.34l5-5.91-3.29-11.39-9.15.25-4.76,4.34-7.83-1.32-2.15,9.58-6.29,5.85-7.52,6.5-11.46-1.23.11-14.34-2.26-9.76,6.57-2.32,4.15-1.35-2.75-10.07-5.32,5.87-6.27,3.85-5.29,4.6-4.16-2.17-9.25,4.09-6.43,11.18-9.28,7.56-7.89,4.59-3,5.77-1.46,8.09-.25,7.88-6.17,3.86-4.13-.59-4.08,10.68-10.71-1.7c-2.77-12.91.48-8.35-13-9.52l-6.81,7.86-7.7.85-6.26-1.45-5.94,4.77-6.32,3-5.09,7.37-7.12,5.22-8,1.36-9.14,9.31-4.7-4.85-7.36-1-2.31,3.78-5.24,2.76.93,6.47-7.5,3.89-8.14,2.15-6.09-6.46-3.87-7.86-10-1.08c-2.56-11.59-4.75-7.3,2.87-17.31,8.55-7.25,5.84-3.57,3.91-14.54l3-10.89,7.67-7.48,12.54-1.57c1.52-14.63-3.66-11.54,11.39-11.76l9.59-4.71-2.79-9.07,2.49-3.24c3.17-3.57,11.28-14.24,14.06-18.47l9-8.65,2.22-6,3.64-1,6,.14,4.31-5.63,7-5.88c13.61,2.76,9.78-.56,7.15,11.45l9.08,1.89,6,4.32c4,.62,10.59,3,14.2,4.47l9.79-10.66-10-10.81c-5.18-15.55.53-12.56-14.73-11.24l2.29-11,5.09-5.12c11-.48,7.79-.26,15.75,5.72a137.2,137.2,0,0,0,14.15-6.07l12.15-3.29,5.06-5.87c9.84,2.24,6.17,2.19,12.7-4.36l-6.58-6.34-5.27-.2-4,7-8.72-.93-10.68,6.07-6.42-3-5.29,2.71-7.53-3.08-9.51,7.56-8.36-8,6.53-9-5-2.68-3,.34-1-4.09,6.47-2.93,6.54,2.37,6.29,6.27,7.29-5.77.78-6.21,3-4.34c3.58-.63,13.23-7.77,16.23-9.89,10.33,1.91,7.48,2.41,16-2.75,5.26-8.74,3.64-5.31.41-14,3.86,1,12.69,1.79,16.74,1.94l5.06,1.8,4.45-2.07-3.86-4.94-10.39-.46c-2.67-12.09-2.22-7.3,4.89-17.44l7.36-1.68,9,4.74,12.05-6.58,12.56-3.93,9.86-.13a69.33,69.33,0,0,0,15.16-1.19l7.41.54,3.78-1.77,2.86-5.27,10.39,2.44,12.08-9.88-9.68-9.77-9,2.85-9.21-1.43-8.28-5.45-7.93,6.49-11.68,2-11.91,1.37-9.82-3.63-7.45.23-10.37-1.48-4.85,1.4-7.1-4.61-8.88-3.42-3.49,4-4.1,11.91-8.83-.89-11.85,4.28-10-1.79-5.74,3.31-2.26,7.17,3,12.83-9.78,10.46-11.39,8.06-3.9,13.24-7.11-5c-3.19-4.86-8.49-15.33-11-20.62l-14.3-5.91,11.42-5.49,3.69-5-8.79-8.18-1.65,4.82-2.58,2.56-6.51.07-2.3,4-4-6.64,5.21-12.42-3.43-5.48-10.67.39-5.6-6.87,5.56-1.91,2.47-3.07-3.84-8.62-9.73-2.78-4.27-9.19-6.43-5.66-7.25-3-6.41-.84,4.21-7.38c-1.5-13.59-2.6-9,6.25-20l13.68-3.74c-1.26-4-5.94-11.53-8.41-14.88l1.79-5.76c8.86-10.37,3.39-7.58,18.94-3.43l-5.33-18.2c1.57-3.34,4-11.14,5.65-14.53l-9.63-2.19-5.47-4-9.35-.8-10.49,5.48-5.58,12.4-7.79,4.52-8.5-6.27,3.64-4.12,1.33-5.91-5.41-6.18-8.1,2.71-4.23,3.27-.21,6.1-7.75-4.14-5.08-7.14-7.46,7-8.3-6.51L1064,1942l-2.13-2.79C1059.72,1927,1057.41,1931.64,1068.21,1922.26Z"/><path class="cls-1" d="M2238.24,946.58c-1.25,3.23-3.72,9.9-5,13.07l-7.47-4,2.26,9.54-1.08,5-9,6.59c-11-7.72-6-7.76-19.61-6l-17.79-7.95-12.76-.68,1.06-11,16.3-9.8,22.09,3.91,21.67-7Z"/></svg>