<svg height="100%" width="100%" id="bg-svg" viewBox="0 0 1440 400" xmlns="http://www.w3.org/2000/svg" class="transition duration-300 ease-in-out delay-150"><defs><linearGradient id="gradient"><stop offset="5%" stop-color="#00d08466"></stop><stop offset="95%" stop-color="#32ded466"></stop></linearGradient></defs><path d="M 0,400 C 0,400 0,100 0,100 C 100.40000000000003,109.0025641025641 200.80000000000007,118.0051282051282 269,107 C 337.19999999999993,95.9948717948718 373.19999999999993,64.98205128205129 456,68 C 538.8000000000001,71.01794871794871 668.4,108.06666666666669 757,122 C 845.6,135.9333333333333 893.2,126.75128205128205 966,116 C 1038.8,105.24871794871795 1136.8,92.92820512820514 1220,90 C 1303.2,87.07179487179486 1371.6,93.53589743589743 1440,100 C 1440,100 1440,400 1440,400 Z" stroke="none" stroke-width="0" fill="url(#gradient)" class="transition-all duration-300 ease-in-out delay-150"></path><defs><linearGradient id="gradient"><stop offset="5%" stop-color="#00d08488"></stop><stop offset="95%" stop-color="#32ded488"></stop></linearGradient></defs><path d="M 0,400 C 0,400 0,200 0,200 C 92.9025641025641,200.71282051282049 185.8051282051282,201.425641025641 270,210 C 354.1948717948718,218.574358974359 429.68205128205136,235.01025641025643 494,226 C 558.3179487179486,216.98974358974357 611.4666666666667,182.53333333333333 681,173 C 750.5333333333333,163.46666666666667 836.4512820512819,178.85641025641027 929,196 C 1021.5487179487181,213.14358974358973 1120.7282051282052,232.04102564102564 1207,233 C 1293.2717948717948,233.95897435897436 1366.6358974358973,216.9794871794872 1440,200 C 1440,200 1440,400 1440,400 Z" stroke="none" stroke-width="0" fill="url(#gradient)" class="transition-all duration-300 ease-in-out delay-150"></path><defs><linearGradient id="gradient"><stop offset="5%" stop-color="#00d084ff"></stop><stop offset="95%" stop-color="#32ded4ff"></stop></linearGradient></defs><path d="M 0,400 C 0,400 0,300 0,300 C 55.14615384615385,312.5435897435898 110.2923076923077,325.0871794871795 202,332 C 293.7076923076923,338.9128205128205 421.97692307692296,340.19487179487174 518,323 C 614.023076923077,305.80512820512826 677.8,270.1333333333333 747,263 C 816.2,255.86666666666665 890.8230769230768,277.27179487179484 971,283 C 1051.1769230769232,288.72820512820516 1136.9076923076923,278.77948717948715 1216,279 C 1295.0923076923077,279.22051282051285 1367.5461538461539,289.6102564102564 1440,300 C 1440,300 1440,400 1440,400 Z" stroke="none" stroke-width="0" fill="url(#gradient)" class="transition-all duration-300 ease-in-out delay-150"></path></svg>
