<svg id="Lesson_Graphics" data-name="Lesson Graphics" xmlns="http://www.w3.org/2000/svg" viewBox="0 0 4096 4096"><defs><style>.cls-1{opacity:0.5;}.cls-2{fill:#513b10;}.cls-3{fill:#7f601b;}</style></defs><path class="cls-1" d="M2039.42,1986.65h-16a3.28,3.28,0,0,0-1.55.4l-4.64,3.1c-.33.22-.17.4.35.4h.85l-2.32,1.55h1.68l2.32-1.55h11.19l-2.33,1.55h1.68l2.33-1.55h.6a3.32,3.32,0,0,0,1.55-.4l4.64-3.1C2040.11,1986.83,2040,1986.65,2039.42,1986.65Z"/><path class="cls-2" d="M2031.52,1976.51h-15.94a1.06,1.06,0,0,0-.95,1.13v8.78a1.06,1.06,0,0,0,.95,1.13h.85l1.34,4.63.34-.23v-4.4h11.19l1.33,4.61.35-.21,0-4.18h.72c.48-.13.77-.46.8-1.35l-.06-8.79A1.06,1.06,0,0,0,2031.52,1976.51Z"/><path class="cls-3" d="M2031.23,1976.75h-16a1.06,1.06,0,0,0-1,1.13v8.78a1.06,1.06,0,0,0,1,1.13h.85v4.4h1.68v-4.4H2029v4.4h1.68v-4.4h.6a1.06,1.06,0,0,0,1-1.13v-8.78A1.06,1.06,0,0,0,2031.23,1976.75Z"/><path class="cls-2" d="M2019.91,1983.94c0-.11,0-.23,0-.32a1.64,1.64,0,0,0,.44-.75,4.58,4.58,0,0,1,.34-1.32.93.93,0,0,1,.37-.48,2.67,2.67,0,0,1,1.87-.56c.35,0,.71.25,1.06.12a.9.9,0,0,1,1-.15c.06,0,.1.09.15.07s.13.08.28,0a.81.81,0,0,1,.16,0,.09.09,0,0,1,.11,0c.06,0,.1,0,.17,0s.19-.16.26-.1,0,.17,0,.23h0c.17,0,.22.19.36.25s.22.21.35.27.14.16.29.17h0s.07,0,.06.06a.77.77,0,0,1,0,.3s0,.08,0,.08h0a.53.53,0,0,1-.39.18c-.07,0,0,.07-.08.09s-.29,0-.43,0-.18.08-.29.08a.08.08,0,0,0-.07,0c0,.08-.15,0-.22.06s-.09,0-.13,0-.12,0-.17.07,0,.08,0,.12.06.13,0,.2,0,.43-.2.58a.37.37,0,0,0-.06.35,2.51,2.51,0,0,1,.16.46c0,.18-.06.12.12.25a.39.39,0,0,0,.3.08l.13.07s.09.1.06.14-.09,0-.14-.06h0c0,.1-.39,0-.5,0s-.25.09-.35,0,0,0,0,0,0-.07,0-.1a1,1,0,0,1-.32-.14s-.08,0-.09-.09a.14.14,0,0,0,0-.06s0,0,0,0-.09-.27-.17-.39h0a.13.13,0,0,0,0,.1c0,.06,0,.12,0,.18s0,.11,0,.16,0,.05,0,.06l.39.14s.13.06.1.12a0,0,0,0,1-.06,0s0,0-.06,0a.8.8,0,0,1-.46,0s0,0,0,0-.16,0-.23,0-.13,0-.17,0,0-.06-.05-.1,0,0,0-.07,0,0,0,0c-.18-.08-.09-.07-.19-.21s-.13-.12-.11-.21.08-.34.11-.5h0s0,0,0,0h0l-.35,0s-.09,0-.12,0h-.12s0,0,0,0h0v0c-.09,0-.19.06-.29.05s0,0,0,0a1.52,1.52,0,0,1-.19.5.37.37,0,0,0,0,.23.27.27,0,0,0,.1.06c.15,0,.34,0,.45.14s0,0,0,0h0c-.06,0,0,.11-.1.1h0a.14.14,0,0,1-.11,0,2.48,2.48,0,0,1-.47,0,.93.93,0,0,1-.37,0,.18.18,0,0,1-.1-.17,2.86,2.86,0,0,1-.15-.41c0-.05,0-.31-.06-.29s-.23.17-.35.24l-.31.2c0,.13.12.13.2.18s.13.08.08.11-.12,0-.13,0-.06.08-.1.07a1,1,0,0,1-.25,0s-.07,0-.08,0h0c-.16,0-.2-.15-.2-.27S2019.93,1984,2019.91,1983.94Z"/></svg>