<svg id="Lesson_Text" data-name="Lesson Text" xmlns="http://www.w3.org/2000/svg" viewBox="0 0 4096 4096"><defs><style>.cls-1{fill:#fff;}</style></defs><path class="cls-1" d="M2019.43,1977.81l0,1.17.57-1.17h.21l.08,1.17.52-1.17h.21l-.68,1.44h-.21l-.07-1.19-.59,1.19h-.2l-.07-1.44Z"/><path class="cls-1" d="M2021.85,1978.37a.27.27,0,0,1,0,.18.75.75,0,0,1,0,.23h-.77a.43.43,0,0,0,0,.26.2.2,0,0,0,.19.09.32.32,0,0,0,.24-.09.27.27,0,0,0,.09-.12h.18a.66.66,0,0,1-.08.13.43.43,0,0,1-.11.12.5.5,0,0,1-.22.1l-.14,0a.34.34,0,0,1-.3-.15.45.45,0,0,1-.06-.39.73.73,0,0,1,.23-.41.53.53,0,0,1,.39-.16.46.46,0,0,1,.2,0A.25.25,0,0,1,2021.85,1978.37Zm-.15.27a.35.35,0,0,0,0-.18.2.2,0,0,0-.21-.13.35.35,0,0,0-.23.09.45.45,0,0,0-.13.22Z"/><path class="cls-1" d="M2022.28,1977.81h.17l-.3,1.44H2022Z"/><path class="cls-1" d="M2023.38,1978.56h-.17a.31.31,0,0,0,0-.17.21.21,0,0,0-.17-.06.33.33,0,0,0-.27.16,1,1,0,0,0-.11.27.45.45,0,0,0,0,.26.18.18,0,0,0,.19.11.26.26,0,0,0,.19-.07.41.41,0,0,0,.12-.18h.18a.54.54,0,0,1-.22.3.49.49,0,0,1-.32.1.32.32,0,0,1-.29-.15.46.46,0,0,1,0-.37.77.77,0,0,1,.22-.43.52.52,0,0,1,.37-.16.37.37,0,0,1,.27.09A.31.31,0,0,1,2023.38,1978.56Z"/><path class="cls-1" d="M2024.43,1978.7a.76.76,0,0,1-.21.42.56.56,0,0,1-.42.17.35.35,0,0,1-.31-.15.5.5,0,0,1,0-.39.71.71,0,0,1,.22-.42.57.57,0,0,1,.39-.16.4.4,0,0,1,.32.14A.45.45,0,0,1,2024.43,1978.7Zm-.18,0a.48.48,0,0,0,0-.24.2.2,0,0,0-.22-.14.31.31,0,0,0-.26.12.6.6,0,0,0-.14.3.48.48,0,0,0,0,.27.21.21,0,0,0,.21.12.31.31,0,0,0,.27-.14A.86.86,0,0,0,2024.25,1978.71Z"/><path class="cls-1" d="M2024.75,1978.2h.17l0,.15a.6.6,0,0,1,.14-.11.37.37,0,0,1,.21-.06.24.24,0,0,1,.18.06.2.2,0,0,1,.06.11.52.52,0,0,1,.17-.13.37.37,0,0,1,.18,0c.14,0,.23,0,.26.15a.56.56,0,0,1,0,.22l-.15.7h-.18l.15-.73a.13.13,0,0,0,0-.14.16.16,0,0,0-.12,0,.28.28,0,0,0-.19.07.36.36,0,0,0-.12.23l-.13.61h-.18l.14-.68a.31.31,0,0,0,0-.16c0-.05-.06-.07-.13-.07a.27.27,0,0,0-.2.08.43.43,0,0,0-.14.27l-.12.56h-.17Z"/><path class="cls-1" d="M2027.19,1978.37a.48.48,0,0,1,0,.18,1.31,1.31,0,0,1,0,.23h-.77a.43.43,0,0,0,0,.26.2.2,0,0,0,.2.09.36.36,0,0,0,.24-.09.27.27,0,0,0,.09-.12h.17a.33.33,0,0,1-.07.13.65.65,0,0,1-.11.12.62.62,0,0,1-.22.1l-.15,0a.34.34,0,0,1-.3-.15.45.45,0,0,1,0-.39.72.72,0,0,1,.22-.41.56.56,0,0,1,.39-.16.46.46,0,0,1,.21,0A.35.35,0,0,1,2027.19,1978.37Zm-.15.27a.5.5,0,0,0,0-.18.2.2,0,0,0-.21-.13.33.33,0,0,0-.22.09.46.46,0,0,0-.14.22Z"/><path class="cls-1" d="M2027.45,1979.05h.19l0,.2h-.19Zm.26-1.24h.2l-.1.48-.18.62h-.1l.08-.62Z"/><path class="cls-1" d="M2018.91,1986.13h.1l-.13.23-.13.22a1.84,1.84,0,0,1-.16.24.12.12,0,0,1-.11,0h-.06l0-.08h.09l0,0,0,0,0-.06-.08-.53h.1l0,.42Z"/><path class="cls-1" d="M2019.48,1986.38a.41.41,0,0,1-.1.21.29.29,0,0,1-.21.08.22.22,0,0,1-.16-.07.32.32,0,0,1,0-.2.42.42,0,0,1,.11-.21.32.32,0,0,1,.2-.08.19.19,0,0,1,.16.07A.25.25,0,0,1,2019.48,1986.38Zm-.09,0a.24.24,0,0,0,0-.12s-.05-.07-.11-.07a.16.16,0,0,0-.13.06.52.52,0,0,0-.07.15.22.22,0,0,0,0,.14.11.11,0,0,0,.1,0,.17.17,0,0,0,.14-.06A.47.47,0,0,0,2019.39,1986.38Z"/><path class="cls-1" d="M2019.73,1986.13l-.07.34a.08.08,0,0,0,0,.07s0,0,.07,0a.18.18,0,0,0,.15-.09.83.83,0,0,0,0-.12l0-.25h.09l-.11.52h-.08v-.08l-.05,0a.2.2,0,0,1-.13,0c-.07,0-.12,0-.14-.07v-.11l.08-.35Z"/><path class="cls-1" d="M2020.13,1986.54h.1l0,.11h-.1Z"/><path class="cls-1" d="M2020.76,1986.14a.1.1,0,0,1,0,0l.06-.26h.08l-.15.72h-.08l0-.07-.09.07-.1,0a.17.17,0,0,1-.14-.08.23.23,0,0,1,0-.19.47.47,0,0,1,.1-.2.26.26,0,0,1,.19-.08Zm-.18.45a.16.16,0,0,0,.11,0,.36.36,0,0,0,.08-.15.23.23,0,0,0,0-.15.11.11,0,0,0-.09,0,.17.17,0,0,0-.12,0,.26.26,0,0,0-.07.15.22.22,0,0,0,0,.14A.1.1,0,0,0,2020.58,1986.59Z"/><path class="cls-1" d="M2021.42,1986.21a.24.24,0,0,1,0,.09s0,.06,0,.12H2021a.16.16,0,0,0,0,.12s0,0,.1,0a.15.15,0,0,0,.11,0l0-.06h.09a.61.61,0,0,1,0,.06l0,.06-.11.05h-.08a.21.21,0,0,1-.15-.07.26.26,0,0,1,0-.2.33.33,0,0,1,.11-.21.27.27,0,0,1,.19-.08.23.23,0,0,1,.11,0A.13.13,0,0,1,2021.42,1986.21Zm-.08.14a.17.17,0,0,0,0-.1.11.11,0,0,0-.11-.06.16.16,0,0,0-.11,0,.18.18,0,0,0-.07.11Z"/><path class="cls-1" d="M2021.63,1986.13l0,.42.24-.42h.09l-.3.52h-.1l-.08-.52Z"/><path class="cls-1" d="M2022.42,1985.93h.11l.24.58.13-.58h.09l-.15.72h-.11l-.25-.58-.12.58h-.09Z"/><path class="cls-1" d="M2023.33,1986.33l0,0s0,0,0,0a.06.06,0,0,0,0-.06s0,0-.09,0a.14.14,0,0,0-.11,0l0,.06h-.08a.18.18,0,0,1,.09-.14.33.33,0,0,1,.15,0,.26.26,0,0,1,.14,0,.1.1,0,0,1,0,.11l-.06.3v0h0v.06h-.06s-.05,0-.06,0a.07.07,0,0,1,0-.05l-.09.06a.24.24,0,0,1-.12,0,.12.12,0,0,1-.1-.05.11.11,0,0,1,0-.11.21.21,0,0,1,.07-.11.29.29,0,0,1,.13-.05Zm-.18.26.1,0a.14.14,0,0,0,.09-.12l0-.07,0,0h-.1l-.08,0a.11.11,0,0,0-.06.07s0,0,0,.06Z"/><path class="cls-1" d="M2023.69,1986h.09l0,.15h.08v.07h-.08l-.08.34s0,0,0,0h.07l0,.07h-.06c-.05,0-.07,0-.08,0a.22.22,0,0,1,0-.09l.08-.34h-.07v-.07h.07Z"/><path class="cls-1" d="M2023.92,1986.13h.09l-.11.52h-.09Zm0-.2h.09l0,.1h-.09Z"/><path class="cls-1" d="M2024.54,1986.38a.41.41,0,0,1-.1.21.3.3,0,0,1-.21.08.2.2,0,0,1-.16-.07.26.26,0,0,1,0-.2.42.42,0,0,1,.11-.21.3.3,0,0,1,.2-.08.19.19,0,0,1,.16.07A.25.25,0,0,1,2024.54,1986.38Zm-.09,0a.24.24,0,0,0,0-.12s0-.07-.11-.07a.16.16,0,0,0-.13.06.35.35,0,0,0-.07.15.22.22,0,0,0,0,.14.11.11,0,0,0,.1,0,.17.17,0,0,0,.14-.06A.47.47,0,0,0,2024.45,1986.38Z"/><path class="cls-1" d="M2024.7,1986.13h.08v.07l.09-.07.1,0c.07,0,.12,0,.13.08a.24.24,0,0,1,0,.12l-.07.34h-.09l.07-.33v-.08s0,0-.08,0h-.05l-.07,0,0,.06a.13.13,0,0,0,0,.08l-.06.27h-.09Z"/><path class="cls-1" d="M2025.49,1986.33l0,0s0,0,0,0a0,0,0,0,0,0-.06s0,0-.08,0a.14.14,0,0,0-.11,0l0,.06h-.08a.18.18,0,0,1,.09-.14.33.33,0,0,1,.15,0,.29.29,0,0,1,.14,0,.1.1,0,0,1,0,.11l-.06.3v0h.05v.06h-.07a.06.06,0,0,1-.06,0v-.05l-.09.06-.12,0a.14.14,0,0,1-.11-.05.13.13,0,0,1,0-.11.16.16,0,0,1,.07-.11.29.29,0,0,1,.13-.05Zm-.17.26.09,0a.14.14,0,0,0,.1-.12l0-.07,0,0h-.1l-.08,0a.11.11,0,0,0-.06.07s0,0,0,.06Z"/><path class="cls-1" d="M2025.86,1985.93h.09l-.16.72h-.08Z"/><path class="cls-1" d="M2026.38,1985.93h.32a.17.17,0,0,1,.14.06.17.17,0,0,1,0,.15.24.24,0,0,1-.09.14.21.21,0,0,1-.17.07h-.23l-.06.3h-.1Zm.35.1h-.27l-.06.24h.2l.11,0a.14.14,0,0,0,.06-.1A.09.09,0,0,0,2026.73,1986Z"/><path class="cls-1" d="M2027.22,1986.33l0,0,0,0s0,0,0-.06,0,0-.09,0a.14.14,0,0,0-.11,0l0,.06H2027a.2.2,0,0,1,.09-.14.42.42,0,0,1,.15,0,.26.26,0,0,1,.14,0,.09.09,0,0,1,0,.11l-.06.3v0h0v.06h-.06a.06.06,0,0,1-.06,0,.07.07,0,0,1,0-.05l-.09.06a.2.2,0,0,1-.11,0,.13.13,0,0,1-.11-.05.11.11,0,0,1,0-.11.21.21,0,0,1,.07-.11.29.29,0,0,1,.13-.05Zm-.18.26.1,0a.18.18,0,0,0,.1-.12v-.07l0,0h-.11l-.08,0a.08.08,0,0,0,0,.07.06.06,0,0,0,0,.06Z"/><path class="cls-1" d="M2027.54,1986.13h.08l0,.09.07-.07a.18.18,0,0,1,.1,0h0l0,.09h0a.14.14,0,0,0-.11,0,.21.21,0,0,0-.06.1l-.06.3h-.09Z"/><path class="cls-1" d="M2027.91,1985.93h.08l-.09.42.28-.22h.11l-.24.19.14.33h-.11l-.11-.26-.09.06,0,.2h-.08Z"/></svg>