<svg id="Lessons" xmlns="http://www.w3.org/2000/svg" viewBox="0 0 4096 4096"><defs><style>.cls-1{opacity:0.5;}.cls-2{fill:#513b10;}.cls-3{fill:#7f601b;}.cls-4{fill:#fff;}</style></defs><path class="cls-1" d="M2049.65,1988.17h-30.32a7.06,7.06,0,0,0-2.94.64l-8.79,5c-.63.35-.32.64.68.64h1.61l-4.42,2.49h3.19l4.41-2.49h21.2l-4.41,2.49H2033l4.42-2.49h1.13a7.22,7.22,0,0,0,2.94-.64l8.79-5C2051,1988.45,2050.64,1988.17,2049.65,1988.17Z"/><path class="cls-2" d="M2034.78,1971.94h-30.32a1.81,1.81,0,0,0-1.81,1.81v14.07a1.81,1.81,0,0,0,1.81,1.81h1.62v7.06h3.18v-7.06h21.2v7.06h3.19v-7.06h1.13a1.81,1.81,0,0,0,1.81-1.81v-14.07A1.81,1.81,0,0,0,2034.78,1971.94Z"/><path class="cls-3" d="M2034.12,1972.3h-30.31a1.81,1.81,0,0,0-1.81,1.81v14.07a1.81,1.81,0,0,0,1.81,1.81h1.61v7.07h3.18V1990h21.21v7.07H2033V1990h1.13a1.81,1.81,0,0,0,1.81-1.81v-14.07A1.81,1.81,0,0,0,2034.12,1972.3Z"/><path class="cls-4" d="M2008,1980.84l-1-4h.55l.48,2c.12.51.23,1,.3,1.4h0c.07-.4.2-.88.33-1.4l.54-2h.55l.49,2c.11.48.22,1,.28,1.39h0c.09-.45.2-.9.33-1.4l.53-2h.54l-1.15,4h-.55l-.51-2.1c-.12-.52-.2-.92-.26-1.32h0a12.65,12.65,0,0,1-.31,1.32l-.58,2.1Z"/><path class="cls-4" d="M2012.51,1979.49a.93.93,0,0,0,1,1,1.83,1.83,0,0,0,.8-.15l.09.38a2.43,2.43,0,0,1-1,.18,1.34,1.34,0,0,1-1.42-1.46,1.41,1.41,0,0,1,1.36-1.57,1.24,1.24,0,0,1,1.2,1.37c0,.11,0,.19,0,.25Zm1.55-.38c0-.34-.14-.86-.73-.86a.87.87,0,0,0-.81.86Z"/><path class="cls-4" d="M2015.22,1976.58h.53v4.26h-.53Z"/><path class="cls-4" d="M2018.71,1980.73a2,2,0,0,1-.84.17,1.38,1.38,0,0,1-1.44-1.48,1.48,1.48,0,0,1,1.56-1.54,1.82,1.82,0,0,1,.73.15l-.12.41a1.16,1.16,0,0,0-.61-.14,1,1,0,0,0-1,1.1,1,1,0,0,0,1,1.08,1.61,1.61,0,0,0,.65-.14Z"/><path class="cls-4" d="M2021.92,1979.37a1.42,1.42,0,0,1-1.45,1.54,1.39,1.39,0,0,1-1.39-1.5,1.42,1.42,0,0,1,1.44-1.54A1.38,1.38,0,0,1,2021.92,1979.37Zm-2.31,0c0,.63.37,1.11.89,1.11s.88-.47.88-1.13c0-.49-.25-1.11-.87-1.11S2019.61,1978.84,2019.61,1979.4Z"/><path class="cls-4" d="M2022.58,1978.72c0-.3,0-.54,0-.78h.46l0,.47h0a1,1,0,0,1,.92-.54.87.87,0,0,1,.82.58h0a1.17,1.17,0,0,1,.32-.37,1,1,0,0,1,.64-.21c.39,0,1,.25,1,1.26v1.71h-.52v-1.64c0-.56-.2-.9-.63-.9a.69.69,0,0,0-.62.48,1.1,1.1,0,0,0,0,.27v1.79h-.52v-1.74c0-.46-.2-.8-.6-.8a.78.78,0,0,0-.7.79v1.75h-.52Z"/><path class="cls-4" d="M2027.88,1979.49a.93.93,0,0,0,1,1,1.8,1.8,0,0,0,.8-.15l.09.38a2.41,2.41,0,0,1-1,.18,1.35,1.35,0,0,1-1.43-1.46,1.41,1.41,0,0,1,1.36-1.57,1.23,1.23,0,0,1,1.2,1.37,1.47,1.47,0,0,1,0,.25Zm1.55-.38a.75.75,0,0,0-.73-.86.87.87,0,0,0-.81.86Z"/><path class="cls-4" d="M2030.49,1980.54a.36.36,0,0,1,.36-.38.38.38,0,0,1,0,.75A.35.35,0,0,1,2030.49,1980.54Zm.15-.86-.08-2.88h.57l-.08,2.88Z"/></svg>