<svg id="Zones" xmlns="http://www.w3.org/2000/svg" viewBox="0 0 4096 4096"><defs><style>.cls-1{fill:#eae53b;}.cls-1,.cls-11,.cls-12,.cls-14,.cls-15,.cls-16,.cls-2,.cls-3{stroke:#000;stroke-miterlimit:10;}.cls-1,.cls-11,.cls-12,.cls-14,.cls-15,.cls-16,.cls-3{opacity:0.26;}.cls-2,.cls-21,.cls-4,.cls-44,.cls-59,.cls-70,.cls-89{fill:#fff;}.cls-2{opacity:0.33;}.cls-3{fill:#4dc1ff;}.cls-4{font-size:100px;}.cls-21,.cls-4,.cls-44,.cls-59,.cls-70,.cls-89{font-family:MyriadPro-Regular, Myriad Pro;}.cls-5{letter-spacing:-0.01em;}.cls-6{font-size:50px;}.cls-7{letter-spacing:0.04em;}.cls-8{letter-spacing:-0.14em;}.cls-9{letter-spacing:-0.01em;}.cls-10{letter-spacing:0em;}.cls-11{fill:#e97beb;}.cls-12{fill:#4dc115;}.cls-13{letter-spacing:0em;}.cls-14{fill:#6cffdc;}.cls-15{fill:#ff3000;}.cls-16{fill:#23cb6a;}.cls-17{letter-spacing:0em;}.cls-18{letter-spacing:-0.01em;}.cls-19{letter-spacing:0em;}.cls-20{letter-spacing:0em;}.cls-21,.cls-31{font-size:40px;}.cls-22{letter-spacing:-0.03em;}.cls-23{letter-spacing:0em;}.cls-24{letter-spacing:-0.01em;}.cls-25{letter-spacing:0em;}.cls-26{letter-spacing:-0.01em;}.cls-27{letter-spacing:0em;}.cls-28{letter-spacing:0em;}.cls-29{letter-spacing:0.02em;}.cls-30{letter-spacing:-0.01em;}.cls-32{letter-spacing:-0.04em;}.cls-33{letter-spacing:-0.07em;}.cls-34{letter-spacing:0em;}.cls-35{letter-spacing:0.01em;}.cls-36{letter-spacing:-0.01em;}.cls-37{letter-spacing:0em;}.cls-38{letter-spacing:-0.08em;}.cls-39{letter-spacing:-0.02em;}.cls-40{letter-spacing:0em;}.cls-41{letter-spacing:-0.05em;}.cls-42{letter-spacing:-0.08em;}.cls-43{letter-spacing:-0.02em;}.cls-44{font-size:72px;}.cls-45{letter-spacing:0.01em;}.cls-46{letter-spacing:0em;}.cls-47{letter-spacing:0em;}.cls-48{letter-spacing:0.01em;}.cls-49{font-size:24px;}.cls-50{letter-spacing:0.03em;}.cls-51{letter-spacing:-0.01em;}.cls-52{letter-spacing:0em;}.cls-53{letter-spacing:0em;}.cls-54{letter-spacing:-0.01em;}.cls-55{letter-spacing:-0.04em;}.cls-56{letter-spacing:0em;}.cls-57{letter-spacing:0em;}.cls-58{letter-spacing:0em;}.cls-59{font-size:96px;}.cls-60{letter-spacing:0em;}.cls-61{letter-spacing:-0.01em;}.cls-62{letter-spacing:0em;}.cls-63{font-size:30px;}.cls-64{letter-spacing:0em;}.cls-65{letter-spacing:-0.01em;}.cls-66{letter-spacing:-0.02em;}.cls-67{letter-spacing:-0.01em;}.cls-68{letter-spacing:-0.01em;}.cls-69{letter-spacing:0em;}.cls-70{font-size:55.83px;}.cls-71{letter-spacing:-0.03em;}.cls-72{letter-spacing:0em;}.cls-73{letter-spacing:0em;}.cls-74{font-size:36px;}.cls-75{letter-spacing:0.01em;}.cls-76{letter-spacing:0em;}.cls-77{letter-spacing:0.01em;}.cls-78{letter-spacing:-0.01em;}.cls-79{letter-spacing:0em;}.cls-80{letter-spacing:0.01em;}.cls-81{letter-spacing:0.02em;}.cls-82{letter-spacing:0em;}.cls-83{letter-spacing:0em;}.cls-84{letter-spacing:0em;}.cls-85{letter-spacing:0em;}.cls-86{letter-spacing:0em;}.cls-87{letter-spacing:-0.01em;}.cls-88{letter-spacing:0em;}.cls-89{font-size:70px;}.cls-90{letter-spacing:0.01em;}.cls-91{letter-spacing:0.01em;}.cls-92{letter-spacing:-0.01em;}.cls-93{letter-spacing:-0.01em;}.cls-94{letter-spacing:0.01em;}</style></defs><polygon class="cls-1" points="1700.06 1918.73 1741.99 1797.14 1875.75 1701.71 1527.9 1184.56 1279.03 1181.2 1211.77 1251.08 1181.2 1392.59 1092.97 1371.62 1016.11 1414.42 1048.42 1592.62 1019.6 1681.71 1037.94 1741.11 1035.32 1818.85 1023.97 1858.16 1044.93 1909.82 1700.06 1918.73"/><polygon class="cls-2" points="2098.38 2237.26 2278.32 2154.28 2364.79 1977.83 2180.49 1708.79 2034.61 1688.7 1880.87 1711.41 1749.85 1801.38 1706.17 1932.41 1707.05 2020.63 1761.2 2136.81 1850.3 2224.16 1994.43 2262.59 2098.38 2237.26"/><polygon class="cls-3" points="1921.41 1690.76 1579.5 1167.22 1977.82 987.28 2405.17 1090 2164.75 1693.07 2031.85 1677.35 1921.41 1690.76"/><text class="cls-4" transform="translate(1812.81 1417.2)">B<tspan class="cls-5" x="54.2" y="0">A</tspan><tspan x="113.9" y="0">CK END</tspan><tspan class="cls-6"><tspan x="0" y="60">(H</tspan><tspan class="cls-7" x="46.8" y="60">T</tspan><tspan x="73.55" y="60">T</tspan><tspan class="cls-8" x="98.4" y="60">P</tspan><tspan x="118" y="60">, API</tspan><tspan class="cls-9" x="208.1" y="60">s</tspan><tspan x="227.35" y="60">,</tspan><tspan x="0" y="120" xml:space="preserve">  D</tspan><tspan class="cls-10" x="54.5" y="120">a</tspan><tspan x="78.4" y="120">tabases)</tspan></tspan></text><polygon class="cls-11" points="2202.99 1721.02 2468.74 1139.27 2917.72 1467.71 2910.75 1958.62 2325.49 1897.66 2263.82 1808.73 2202.99 1721.02"/><polygon class="cls-12" points="2473.98 1963.86 2629.47 2079.16 2720.31 2023.25 2851.34 2077.41 2907.24 2196.21 3006.82 2190.97 2938.68 2353.44 2805.91 2349.94 2762.24 2260.85 2631.21 2353.44 2493.2 2384.88 2318.5 2327.23 2315 2224.16 2320.24 2089.64 2358.68 2023.25 2473.98 1963.86"/><text class="cls-4" transform="translate(2330.93 1691.87) rotate(-16.74)">INF<tspan class="cls-13" x="138.4" y="0">R</tspan><tspan x="192.7" y="0">A</tspan></text><polygon class="cls-14" points="1699.18 2021.51 1190.81 2167.38 1182.94 2209.31 1065.02 2315 1087.73 2394.49 1218.76 2358.68 1271.17 2512.42 1364.63 2511.54 1405.69 2567.45 1330.57 2795.43 1394.33 2826 1596.98 2660.04 1703.55 2508.05 1770.81 2480.1 1848.55 2228.53 1756.01 2139.65 1699.18 2021.51"/><polygon class="cls-15" points="1697.83 1927.67 1044.93 1915.81 1042.31 1963.86 1109.57 1994.43 1094.72 2045.96 1189.93 2159.52 1699.18 2016.27 1693.94 1980.74 1697.83 1927.67"/><polygon class="cls-16" points="1853.79 2230.27 1776.93 2483.59 1706.17 2512.42 1601.35 2663.53 1498.28 2747.39 1524.48 2836.49 1661.62 2879.29 1845.06 2961.4 1990.86 2898.33 2086.15 2775.34 2372.07 2733.45 2099.86 2243.96 1992.33 2267.84 1853.79 2230.27"/><text class="cls-4" transform="matrix(0.97, 0.26, -0.26, 0.97, 1264.84, 1636.02)">F<tspan class="cls-17" x="48.7" y="0">R</tspan><tspan x="102.8" y="0">ONT END</tspan><tspan class="cls-6"><tspan x="0" y="60">(HTML, CSS,</tspan><tspan x="0" y="120">J</tspan><tspan class="cls-18" x="18.5" y="120">a</tspan><tspan class="cls-19" x="42.2" y="120">v</tspan><tspan x="66.05" y="120">asc</tspan><tspan class="cls-20" x="132.35" y="120">r</tspan><tspan x="148.9" y="120">ipt )</tspan></tspan></text><text class="cls-21" transform="translate(1231.64 1426.38) rotate(-16.13)"><tspan class="cls-22">F</tspan><tspan class="cls-23" x="18.44" y="0">r</tspan><tspan x="31.32" y="0">ame</tspan><tspan class="cls-24" x="104" y="0">w</tspan><tspan x="133.04" y="0">o</tspan><tspan class="cls-25" x="155" y="0">r</tspan><tspan x="168.24" y="0">ks</tspan></text><text class="cls-21" transform="translate(1512.91 1393.19) rotate(-9.75)"><tspan class="cls-26">C</tspan><tspan x="22.92" y="0">ache</tspan></text><text class="cls-21" transform="translate(1104.99 1557.41) rotate(-9.75)"><tspan class="cls-25">R</tspan><tspan x="21.68" y="0">outing</tspan></text><text class="cls-4" transform="matrix(1, -0.02, 0.02, 1, 1848.34, 1919.04)"><tspan class="cls-13">G</tspan><tspan x="65.1" y="0">etting</tspan><tspan class="cls-27" x="0" y="103">S</tspan><tspan class="cls-28" x="49" y="103">ta</tspan><tspan class="cls-29" x="130.3" y="103">r</tspan><tspan class="cls-30" x="165.4" y="103">t</tspan><tspan x="197.9" y="103">ed</tspan><tspan class="cls-31"><tspan x="0" y="151">(</tspan><tspan class="cls-32" x="11.36" y="151"> </tspan><tspan class="cls-33" x="18.2" y="151">T</tspan><tspan x="35.24" y="151">ool</tspan><tspan class="cls-9" x="88.6" y="151">s</tspan><tspan x="104" y="151">, B</tspan><tspan class="cls-25" x="142.44" y="151">r</tspan><tspan class="cls-34" x="155.68" y="151">ief </tspan><tspan class="cls-35" x="205.24" y="151">I</tspan><tspan class="cls-10" x="215.2" y="151">n</tspan><tspan x="237.24" y="151">t</tspan><tspan class="cls-36" x="250.48" y="151">r</tspan><tspan class="cls-34" x="263.16" y="151">o</tspan><tspan class="cls-9" x="285.12" y="151">s</tspan><tspan class="cls-37" x="300.52" y="151">, </tspan><tspan x="0" y="199"> </tspan><tspan class="cls-38" x="8.48" y="199"> </tspan><tspan class="cls-39" x="13.64" y="199">“</tspan><tspan class="cls-40" x="27.16" y="199">G</tspan><tspan class="cls-37" x="53.2" y="199">et</tspan><tspan class="cls-41" x="86.48" y="199"> </tspan><tspan class="cls-42" x="93.12" y="199">Y</tspan><tspan x="111.72" y="199">our </tspan><tspan class="cls-25" x="177.28" y="199">B</tspan><tspan class="cls-37" x="199.12" y="199">ea</tspan><tspan class="cls-20" x="238.44" y="199">r</tspan><tspan class="cls-34" x="251.68" y="199">ing</tspan><tspan class="cls-43" x="305.6" y="199">s</tspan><tspan x="320.75" y="199">”)</tspan></tspan></text><text class="cls-44" transform="matrix(0.99, 0.13, -0.13, 0.99, 2416.62, 2157.62)"><tspan class="cls-45">S</tspan><tspan class="cls-46" x="35.93" y="0">ecu</tspan><tspan class="cls-47" x="143.93" y="0">r</tspan><tspan x="167.76" y="0">i</tspan><tspan class="cls-48" x="184.61" y="0">t</tspan><tspan x="209.08" y="0">y</tspan><tspan class="cls-49"><tspan x="0" y="28.8">(c</tspan><tspan class="cls-50" x="17.57" y="28.8">r</tspan><tspan x="26.02" y="28.8">yp</tspan><tspan class="cls-51" x="50.98" y="28.8">t</tspan><tspan x="58.77" y="28.8">o</tspan><tspan class="cls-51" x="71.95" y="28.8">g</tspan><tspan class="cls-52" x="85.22" y="28.8">r</tspan><tspan class="cls-53" x="92.95" y="28.8">ap</tspan><tspan class="cls-54" x="118.17" y="28.8">h</tspan><tspan class="cls-55" x="131.18" y="28.8">y</tspan><tspan x="141.55" y="28.8">,</tspan><tspan x="0" y="57.6">authe</tspan><tspan class="cls-56" x="58.08" y="57.6">n</tspan><tspan x="71.3" y="57.6">tic</tspan><tspan class="cls-57" x="95.61" y="57.6">a</tspan><tspan class="cls-53" x="107.09" y="57.6">tion,</tspan><tspan x="0" y="86.4">autho</tspan><tspan class="cls-58" x="59.23" y="86.4">r</tspan><tspan x="67.18" y="86.4">iz</tspan><tspan class="cls-57" x="83.06" y="86.4">a</tspan><tspan x="94.53" y="86.4">tion)</tspan></tspan></text><text class="cls-59" transform="translate(1456.4 2210.27) rotate(-16.14)">N<tspan class="cls-60" x="63.17" y="0">a</tspan><tspan x="109.05" y="0">ti</tspan><tspan class="cls-61" x="163.29" y="0">v</tspan><tspan x="208.51" y="0">e</tspan><tspan class="cls-62" x="0" y="81">A</tspan><tspan x="58.46" y="81">pps</tspan><tspan class="cls-63"><tspan x="0" y="126">( iOS, </tspan><tspan class="cls-64" x="69.93" y="126">A</tspan><tspan x="88.2" y="126">nd</tspan><tspan class="cls-24" x="121.77" y="126">r</tspan><tspan x="131.28" y="126">oi</tspan><tspan class="cls-65" x="154.77" y="126">d</tspan><tspan x="171.39" y="126">, macOS, </tspan><tspan class="cls-66" x="0" y="162">W</tspan><tspan x="24.9" y="162">ind</tspan><tspan class="cls-67" x="65.49" y="162">o</tspan><tspan class="cls-68" x="81.75" y="162">w</tspan><tspan class="cls-9" x="103.65" y="162">s</tspan><tspan class="cls-69" x="115.2" y="162">, GNU/Linux/BSD )</tspan></tspan></text><text class="cls-70" transform="translate(1824.56 2399.16) rotate(-3.48)"><tspan class="cls-71">F</tspan><tspan class="cls-72" x="25.24" y="0">undame</tspan><tspan class="cls-73" x="219.91" y="0">n</tspan><tspan x="250.67" y="0">tals</tspan><tspan class="cls-74"><tspan x="0" y="43.2">( </tspan><tspan class="cls-75" x="17.86" y="43.2">I</tspan><tspan class="cls-76" x="26.82" y="43.2">nstru</tspan><tspan class="cls-77" x="104.58" y="43.2">c</tspan><tspan x="121.17" y="43.2">tion</tspan><tspan class="cls-78" x="181.26" y="43.2">s</tspan><tspan class="cls-79" x="195.12" y="43.2">,</tspan><tspan x="0" y="86.4" xml:space="preserve">  </tspan><tspan class="cls-80" x="15.26" y="86.4">M</tspan><tspan x="44.42" y="86.4">emo</tspan><tspan class="cls-81" x="112.25" y="86.4">r</tspan><tspan class="cls-55" x="124.92" y="86.4">y</tspan><tspan class="cls-76" x="140.47" y="86.4">,</tspan><tspan x="0" y="129.6" xml:space="preserve">  </tspan><tspan class="cls-82" x="15.26" y="129.6">A</tspan><tspan x="37.19" y="129.6">lgo</tspan><tspan class="cls-83" x="85.57" y="129.6">r</tspan><tspan x="97.49" y="129.6">ithm</tspan><tspan class="cls-9" x="167.83" y="129.6">s</tspan><tspan class="cls-79" x="181.69" y="129.6">,</tspan><tspan x="0" y="172.8" xml:space="preserve">  D</tspan><tspan class="cls-84" x="39.24" y="172.8">a</tspan><tspan class="cls-76" x="56.45" y="172.8">ta </tspan><tspan class="cls-85" x="93.35" y="172.8">S</tspan><tspan x="110.99" y="172.8">tru</tspan><tspan class="cls-77" x="154.51" y="172.8">c</tspan><tspan class="cls-86" x="171.1" y="172.8">tu</tspan><tspan class="cls-87" x="202.86" y="172.8">r</tspan><tspan class="cls-88" x="214.27" y="172.8">es )</tspan></tspan></text><text class="cls-89" transform="translate(1143.06 2029.62) rotate(-5.44)"><tspan class="cls-90">H</tspan><tspan x="46.27" y="0">yb</tspan><tspan class="cls-20" x="119.07" y="0">r</tspan><tspan x="142.24" y="0">id </tspan><tspan class="cls-91" x="212.94" y="0">M</tspan><tspan x="269.63" y="0">obile</tspan><tspan class="cls-63"><tspan x="0" y="36">( </tspan><tspan class="cls-92" x="14.88" y="36">C</tspan><tspan x="31.95" y="36">o</tspan><tspan class="cls-65" x="48.42" y="36">r</tspan><tspan x="57.93" y="36">d</tspan><tspan class="cls-93" x="74.85" y="36">o</tspan><tspan class="cls-10" x="91.11" y="36">v</tspan><tspan x="105.42" y="36">a, Ioni</tspan><tspan class="cls-65" x="179.76" y="36">c</tspan><tspan x="192.9" y="36">, </tspan><tspan class="cls-20" x="205.47" y="36">R</tspan><tspan x="221.73" y="36">ea</tspan><tspan class="cls-94" x="251.22" y="36">c</tspan><tspan class="cls-69" x="265.05" y="36">t N</tspan><tspan class="cls-10" x="301.08" y="36">a</tspan><tspan class="cls-69" x="315.42" y="36">ti</tspan><tspan class="cls-65" x="332.36" y="36">v</tspan><tspan x="346.49" y="36" xml:space="preserve">e )     </tspan></tspan></text></svg>