<svg id="Zones" xmlns="http://www.w3.org/2000/svg" viewBox="0 0 4096 4096"><defs><style>.cls-1{fill:#eae53b;}.cls-1,.cls-2,.cls-3,.cls-4,.cls-5,.cls-6,.cls-7,.cls-8,.cls-9{stroke:#000;stroke-miterlimit:10;}.cls-1,.cls-3,.cls-4,.cls-5,.cls-6,.cls-7,.cls-8,.cls-9{opacity:0.26;}.cls-2{fill:#fff;opacity:0.33;}.cls-3{fill:#4dc1ff;}.cls-4{fill:#e97beb;}.cls-5{fill:#4dc115;}.cls-6{fill:#6cffdc;}.cls-7{fill:#ff3000;}.cls-8{fill:#23cb6a;}.cls-9{fill:#245fc9;}</style></defs><path class="cls-1" d="M1706.81,1899.15,1739,1805.8a28.64,28.64,0,0,1,10.44-14l103.63-73.93a28.64,28.64,0,0,0,7.13-39.29L1536.28,1197c-.27-.39-.54-.77-.82-1.15-7.13-9.56-20.17-12.57-31.08-7.71l-84.77,37.72a63.54,63.54,0,0,1-58-3.27l-61.75-36.3a24,24,0,0,0-29.24,3.67l-.17.17-53,55.08a28.57,28.57,0,0,0-7.36,13.81l-22.68,105a28.64,28.64,0,0,1-34.61,21.82l-49-11.64a28.62,28.62,0,0,0-20.55,2.85L1034,1404.45a28.64,28.64,0,0,0-14.25,30.13l27.38,151a28.7,28.7,0,0,1-.93,13.92l-23.82,73.64a28.56,28.56,0,0,0-.12,17.26l14.25,46.15a28.62,28.62,0,0,1,1.26,9.42l-2.34,69.36a28.56,28.56,0,0,1-1.11,7l-7.61,26.36a28.61,28.61,0,0,0,1,18.71l10.09,24.87a28.62,28.62,0,0,0,26.14,17.86l615.42,8.37A28.63,28.63,0,0,0,1706.81,1899.15Z"/><path class="cls-2" d="M2102.67,2235.28l159.89-73.74A48.76,48.76,0,0,0,2286,2138.7l66.31-135.3a48.8,48.8,0,0,0-3.56-49.06l-46.42-108.7a199.18,199.18,0,0,0-56.81-75.72l-52.78-43.31a48.77,48.77,0,0,0-33.6-20.76L2058.38,1692a178.21,178.21,0,0,0-47.56-.15l-96,12.63a133.85,133.85,0,0,0-57.38,21.75l-87.79,59.27a76.63,76.63,0,0,0-29.3,38.92l-26.58,84a158,158,0,0,0-7.37,49.28l.43,42.75a93.43,93.43,0,0,0,8.75,38.59l21,45.14a320.3,320.3,0,0,0,66.08,93.39l25.15,24.66a119.3,119.3,0,0,0,52.78,30.08l61.81,16.49a210.77,210.77,0,0,0,104.22,1.12l47.1-11.48A48.28,48.28,0,0,0,2102.67,2235.28Z"/><path class="cls-3" d="M1864.6,1673.3l-318.54-473.44a23.89,23.89,0,0,1,10.57-35.32l44.23-18.42a75.19,75.19,0,0,0,34.75-29.41L1670,1062a240.57,240.57,0,0,0,19.42-38.07l14.2-35.27a70.13,70.13,0,0,1,72.67-43.52l13.8,1.51a31.11,31.11,0,0,1,26.3,21.61l2.56,8.15a23.36,23.36,0,0,0,26.78,15.91l79.87-15.67a191.56,191.56,0,0,1,88.73,3.56l125.16,35.17a258.37,258.37,0,0,0,81.68,9.39l69.86-3.15a77.36,77.36,0,0,1,71.93,41.25l17.83,33.87-186.9,586.47a19.84,19.84,0,0,1-21.61,13.62l-112.95-15.64a206.17,206.17,0,0,0-55-.19l-95.27,12.5A46.34,46.34,0,0,1,1864.6,1673.3Z"/><path class="cls-4" d="M2203.12,1682.48l178.49-574.77a46.77,46.77,0,0,0-2.17-33.4l-7.26-15.81a46.77,46.77,0,0,1,23.66-62.34l53.92-23.73a46.63,46.63,0,0,0,8.17-4.62l58.53-41.4a46.77,46.77,0,0,1,44.89-5l16.09,6.66a46.76,46.76,0,0,1,26.11,27.33l13.1,36.26a46.76,46.76,0,0,1-1.16,34.67l-26.3,60a46.79,46.79,0,0,0,20.07,59.65l75.62,42.15a46.65,46.65,0,0,1,17.83,17.65l34.41,60.2a46.79,46.79,0,0,1-4.68,53.16l-11.2,13.44a46.77,46.77,0,0,0,4.92,65l19.77,17.51a46.76,46.76,0,0,0,40.36,10.81l52.65-10.74a46.75,46.75,0,0,1,41.91,12.25l32.09,31.12a46.78,46.78,0,0,1,13.67,40.69l-6.84,44.48a46.74,46.74,0,0,1-8.17,20.07l-1,1.41a46.81,46.81,0,0,0-7.09,39.4l11.13,41.18a46.83,46.83,0,0,1-.28,25.4L2901,1716.47a46.72,46.72,0,0,0-1,22.44l40.71,201.8a46.74,46.74,0,0,1-6.76,34.93l-24,36.56a46.79,46.79,0,0,1-34.34,20.85l-66.69,6.8a46.68,46.68,0,0,1-21.17-2.73l-48.7-18.27a46.79,46.79,0,0,0-42.37,4.88l-38.9,25.93a46.77,46.77,0,0,1-52.84-.65l-85.32-60a102,102,0,0,0-85.18-15h0a69.64,69.64,0,0,1-82.75-41.31l-27.49-68.49a283.8,283.8,0,0,0-87.5-117l-17.89-14.13A46.77,46.77,0,0,1,2203.12,1682.48Z"/><path class="cls-5" d="M2503.13,1988.07l96.76,69.76a54.66,54.66,0,0,0,60.63,2.22l29-22.45a68.64,68.64,0,0,1,62.16-5l75.51,23a104.21,104.21,0,0,1,51.58,50.68l14.65,46.23a59.25,59.25,0,0,0,59.6,41.28l36.49-8.47a26.09,26.09,0,0,1,31.29,19.44h0a26.06,26.06,0,0,1-2.13,17.78l-50.36,99.29a91.36,91.36,0,0,1-82.8,50l-28.35-.42a89.13,89.13,0,0,1-77.64-47.76l-6.9-13.17a24.73,24.73,0,0,0-36.41-8.55l-54.1,39.17a185.14,185.14,0,0,1-90.91,34.35l-98,9.42-174.7-57.65-3.5-103.07,4.18-107.3a124.89,124.89,0,0,1,13.37-51.53l23.21-45.87a66.35,66.35,0,0,1,54.3-36.21l30.8-2.28a171.43,171.43,0,0,0,19.15-2.48A55.88,55.88,0,0,1,2503.13,1988.07Z"/><path class="cls-6" d="M1657,2033.62l-445,127.69a35.68,35.68,0,0,0-25.22,27.71l-1.57,8.39a35.7,35.7,0,0,1-11.25,20l-92.29,82.72a35.65,35.65,0,0,0-10.49,36.35l6.9,24.13a35.66,35.66,0,0,0,43.69,24.61l64.67-17.68a35.67,35.67,0,0,1,43.17,22.89l33.27,97.61a35.66,35.66,0,0,0,34.09,24.15l49.43-.46a35.68,35.68,0,0,1,29.08,14.56l19.36,26.36a35.71,35.71,0,0,1,5.13,32.27l-58,176.17a35.66,35.66,0,0,0,23.2,45.19l36.08,11.32a35.69,35.69,0,0,0,35-7.92l158.09-147.06a35.17,35.17,0,0,0,4.91-5.64l98.46-140.43a35.73,35.73,0,0,1,15.52-12.46l42.24-17.55a35.67,35.67,0,0,0,20.39-22.41l69-223.2a21,21,0,0,0-5.53-21.36l-23.2-21.29a297.05,297.05,0,0,1-41.75-47.42l-26.85-38a275.55,275.55,0,0,1-23.41-39.79l-5.77-12A52,52,0,0,0,1657,2033.62Z"/><path class="cls-7" d="M1676.15,1927.28l-611.43-11.11a20.53,20.53,0,0,0-20.87,19.4l-.78,14.29a20.54,20.54,0,0,0,12,19.8l38.37,17.44a20.52,20.52,0,0,1,11.22,24.36l-6.92,24a20.53,20.53,0,0,0,4,18.87l79.67,95a20.52,20.52,0,0,0,21.28,6.57l479.11-134.78a20.51,20.51,0,0,0,14.75-22.74l-2.28-15.43a20.44,20.44,0,0,1-.16-4.49l2.13-29.2A20.52,20.52,0,0,0,1676.15,1927.28Z"/><path class="cls-8" d="M1839.23,2278.27,1784.08,2460a51.71,51.71,0,0,1-30,32.85l-33.73,13.74a51.7,51.7,0,0,0-23,18.41l-93,134a51.57,51.57,0,0,1-7.1,8.23l-77,72.28a51.68,51.68,0,0,0-12.31,57.62l7.14,17.09a51.68,51.68,0,0,0,32.29,29.4l111.13,34.69a49.87,49.87,0,0,1,5.89,2.24l164.35,74.27a51.68,51.68,0,0,0,44-.7L2052.79,2866a51.44,51.44,0,0,0,15-11.12l119.51-128a51.61,51.61,0,0,0,11.78-20.6l14.67-49.51a51.73,51.73,0,0,1,12.3-21.13l1.76-1.84a51.67,51.67,0,0,0,10.5-55.6L2116.46,2284a51.67,51.67,0,0,0-58.95-30.67l-12.85,2.85a217.39,217.39,0,0,1-104.05-2.41l-38.4-10.41A51.69,51.69,0,0,0,1839.23,2278.27Z"/><path class="cls-9" d="M2179.62,3002l-52.79-143a25.61,25.61,0,0,1,2.61-22.89l73-111.3a26.16,26.16,0,0,0,2.27-4.32l47.91-116.7a25.53,25.53,0,0,0-.14-19.77l-136.7-319.89a25.59,25.59,0,0,1,12.6-33.19l143.92-68a25.59,25.59,0,0,1,36.51,23l.69,125a25.56,25.56,0,0,0,17.05,24l159.78,56.55a25.36,25.36,0,0,0,9.06,1.46l90.62-1.86a202.48,202.48,0,0,1,100.18,24.17l28.7,15.45a64.14,64.14,0,0,1,33.45,50.44l2.33,24.55a55.39,55.39,0,0,1-30.57,54.85l-29.52,14.61a172.83,172.83,0,0,1-78.4,17.93l-36.28-.36a25.57,25.57,0,0,0-25.77,23.83l-2.69,39.2a25.61,25.61,0,0,1-9.27,18l-80.45,66.15a25.25,25.25,0,0,0-4.57,4.89l-87.77,122.87a25.55,25.55,0,0,0-3,5.56l-52.15,133.48a25.59,25.59,0,0,1-25.15,16.24l-82.76-4.28A25.58,25.58,0,0,1,2179.62,3002Z"/></svg>